<svg width="32" height="32" viewBox="0 0 32 32" fill="none" xmlns="http://www.w3.org/2000/svg">
<path d="M5.33301 22.6668C5.33301 25.6123 7.67069 28.0002 10.5544 28.0002C12.9197 28.0002 14.9176 26.3937 15.5595 24.1906H21.1463C21.7089 24.1906 21.743 24.2255 21.743 24.8002V26.4764V26.4764C21.743 27.1947 21.743 27.5539 21.9615 27.777C22.1799 28.0002 22.5316 28.0002 23.2348 28.0002H24.2495C24.835 28.0002 25.1277 28.0002 25.3339 27.8275C25.5402 27.6548 25.5976 27.3616 25.7124 26.7752L26.1225 24.6806C26.2143 24.2115 26.2393 24.1906 26.7076 24.1906H27.7103C28.4135 24.1906 28.7651 24.1906 28.9836 23.9675C29.4723 23.4683 29.4261 21.0563 28.9836 20.6043C28.7651 20.3811 28.4135 20.3811 27.7103 20.3811H15.2733C14.4353 18.5793 12.6372 17.3335 10.5544 17.3335C7.67069 17.3335 5.33301 19.7213 5.33301 22.6668Z" stroke="#FEFFFF" stroke-width="1.5" stroke-linecap="round" stroke-linejoin="round"/>
<path d="M10.6789 22.6665H10.667" stroke="#FEFFFF" stroke-width="2" stroke-linecap="round" stroke-linejoin="round"/>
<path d="M25.3337 16.6667V12C25.3337 8.22876 25.3337 6.34315 24.1621 5.17157C22.9905 4 21.1049 4 17.3337 4H10.667C6.89576 4 5.01014 4 3.83856 5.17157C2.66699 6.34315 2.66699 8.22876 2.66699 12V18.6667" stroke="#FEFFFF" stroke-width="1.5" stroke-linecap="round" stroke-linejoin="round"/>
</svg>
