<svg width="277" height="39" viewBox="0 0 277 39" fill="none" xmlns="http://www.w3.org/2000/svg">
<path d="M35.2399 38.0812V0H44.0098V38.0812H35.2399ZM205.718 23.8536C205.718 14.6507 198.499 8.93847 190.05 8.93847C181.547 8.93847 174.381 14.7036 174.381 23.8536C174.381 33.0565 181.601 38.8216 190.05 38.8216C198.499 38.8216 205.718 33.0037 205.718 23.8536ZM197.055 23.8536C197.055 28.6666 193.793 31.3641 189.997 31.3641C186.199 31.3641 182.937 28.6666 182.937 23.8536C182.937 18.9877 186.199 16.3961 189.997 16.3961C193.793 16.3961 197.055 18.9877 197.055 23.8536ZM31.7106 27.1328C31.7106 22.8487 29.4647 19.5695 25.454 18.0886C29.2508 16.0258 30.5877 13.3284 30.5877 10.155C30.5877 4.60147 26.5235 0 17.4328 0.0528905H0V38.134H18.1814C27.3257 38.0812 31.7106 33.5854 31.7106 27.1328ZM21.283 11.2656C21.283 13.8573 19.6253 15.3382 16.4168 15.3382H9.14421V7.40466H16.4168C19.3579 7.40466 21.283 8.67403 21.283 11.2656ZM22.0852 26.551C22.0852 29.0369 20.3204 30.6765 17.0585 30.6765H9.14421V22.4255H17.0585C20.2135 22.4255 22.0852 24.0123 22.0852 26.551ZM108.073 16.7134C105.667 11.7417 101.174 8.9914 94.3833 8.9914C86.3619 8.9914 79.1965 13.9631 79.1965 23.8536C79.1965 33.4797 85.5066 38.8216 94.2764 38.8216C100.426 38.8216 105.613 36.3887 108.073 31.1525L101.014 27.5559C99.7305 29.8831 97.7522 31.3641 94.5972 31.3641C90.533 31.3641 87.9126 28.5079 87.9126 23.8536C87.9126 19.1992 90.9075 16.3961 94.5434 16.3961C97.3777 16.3961 99.5167 17.6654 100.853 20.4157L108.073 16.7134ZM237.321 16.7134C234.915 11.7417 230.424 8.9914 223.632 8.9914C215.611 8.9914 208.445 13.9631 208.445 23.8536C208.445 33.4797 214.755 38.8216 223.525 38.8216C229.675 38.8216 234.862 36.3887 237.321 31.1525L230.263 27.5559C228.979 29.8831 227.001 31.3641 223.846 31.3641C219.782 31.3641 217.161 28.5079 217.161 23.8536C217.161 19.1992 220.156 16.3961 223.792 16.3961C226.626 16.3961 228.765 17.6654 230.102 20.4157L237.321 16.7134ZM163.793 38.0812L156.467 25.2816H150.853V38.0812H141.816V0H158.125C166.948 0 173.098 4.17835 173.098 12.3764C173.098 17.6126 170.478 21.3149 165.825 23.5892L174.275 38.0812H163.793ZM150.906 17.7183H157.644C161.815 17.7183 163.847 15.3911 163.847 12.6408C163.847 9.36159 161.922 7.56334 157.644 7.56334H150.906V17.7183ZM77.7522 37.6051V31.6285C77.3783 31.7343 76.8437 31.8401 76.2553 31.8401C75.1324 31.8401 74.544 31.2582 74.544 30.2534V20.3629C74.544 12.9581 69.5176 9.04428 61.2286 9.04428C55.8277 9.04428 51.2289 11.0012 48.3413 13.5399L53.2075 18.9348C55.1326 17.2423 57.6996 16.1845 60.2126 16.1845C64.0629 16.1845 65.8811 18.0886 65.8811 21.2091V22.1082C64.0629 21.6851 61.7632 21.262 58.9827 21.262C51.9776 21.262 47.4323 24.5941 47.4323 30.0947C47.4323 35.754 51.2289 38.7158 57.1113 38.7158C61.1217 38.7158 64.7044 37.0762 66.5764 34.9606C67.6993 37.7638 70.1591 38.5043 72.5657 38.5043C74.2233 38.5572 76.1484 38.2927 77.7522 37.6051ZM65.9343 28.6666C65.9343 31.2582 63.4214 32.9507 60.5334 32.9507C57.8066 32.9507 56.4692 31.5756 56.4692 29.6716C56.4692 27.6617 57.9667 26.1808 61.0148 26.1808C62.8868 26.1808 64.5443 26.4981 65.9343 26.8155V28.6666ZM268.658 38.0812L258.337 20.3629L268.016 9.9434H258.284L248.07 21.1562V0.0528905H239.353V38.134H248.07V31.2582L252.241 26.8684L258.765 38.134H268.658V38.0812ZM139.516 38.0812L129.196 20.3629L138.874 9.9434H129.035L118.928 21.1562V0.0528905H110.212V38.134H118.928V31.2582L123.099 26.8684L129.623 38.134H139.516V38.0812ZM274.006 32.7921C275.823 32.7921 276.893 33.9028 276.893 35.5953C276.893 37.2878 275.823 38.3985 274.006 38.3985C272.187 38.3985 271.118 37.2878 271.118 35.5953C271.118 33.9028 272.187 32.7921 274.006 32.7921ZM274.006 38.0283C275.449 38.0283 276.412 37.182 276.412 35.5953C276.412 34.0086 275.396 33.1623 274.006 33.1623C272.561 33.1623 271.599 34.0086 271.599 35.5953C271.545 37.2349 272.561 38.0283 274.006 38.0283ZM272.883 34.1672H274.059C274.754 34.1672 275.129 34.5375 275.129 35.0664C275.129 35.5424 274.915 35.8069 274.54 35.9655L275.075 36.9704H274.54L274.059 36.0713H273.417V36.9704H272.883V34.1672ZM273.417 34.5904V35.5953H274.006C274.38 35.5953 274.593 35.4895 274.593 35.1193C274.593 34.8019 274.433 34.6432 274.059 34.6432H273.417V34.5904Z" fill="#77718E" fill-opacity="0.2"/>
</svg>
