<svg width="16" height="16" viewBox="0 0 16 16" fill="none" xmlns="http://www.w3.org/2000/svg">
<g clip-path="url(#clip0_8409_169)">
<path d="M12 1.33398V2.66732M4 1.33398V2.66732" stroke="#757575" stroke-width="1.5" stroke-linecap="round" stroke-linejoin="round"/>
<path d="M6.66667 11.3337L6.66666 8.89847C6.66666 8.77063 6.5755 8.66699 6.46305 8.66699H6M9.08644 11.3337L9.98945 8.89977C10.0317 8.78596 9.94189 8.66699 9.81379 8.66699H8.66667" stroke="#757575" stroke-width="1.5" stroke-linecap="round"/>
<path d="M1.66699 8.16216C1.66699 5.25729 1.66699 3.80486 2.50174 2.90243C3.33648 2 4.67999 2 7.36699 2H8.63366C11.3207 2 12.6642 2 13.4989 2.90243C14.3337 3.80486 14.3337 5.25729 14.3337 8.16216V8.5045C14.3337 11.4094 14.3337 12.8618 13.4989 13.7642C12.6642 14.6667 11.3207 14.6667 8.63366 14.6667H7.36699C4.67999 14.6667 3.33648 14.6667 2.50174 13.7642C1.66699 12.8618 1.66699 11.4094 1.66699 8.5045V8.16216Z" stroke="#757575" stroke-width="1.5" stroke-linecap="round" stroke-linejoin="round"/>
<path d="M4 5.33398H12" stroke="#757575" stroke-width="1.5" stroke-linecap="round" stroke-linejoin="round"/>
</g>
<defs>
<clipPath id="clip0_8409_169">
<rect width="16" height="16" fill="white"/>
</clipPath>
</defs>
</svg>
