<svg width="116" height="40" viewBox="0 0 116 40" fill="none" xmlns="http://www.w3.org/2000/svg">
<g clip-path="url(#clip0_8026_344)">
<mask id="mask0_8026_344" style="mask-type:luminance" maskUnits="userSpaceOnUse" x="0" y="0" width="116" height="40">
<path d="M116 0H0V39.8201H116V0Z" fill="white"/>
</mask>
<g mask="url(#mask0_8026_344)">
<path fill-rule="evenodd" clip-rule="evenodd" d="M65.6647 26.4912C65.6647 30.4128 64.4669 33.7451 62.2455 36.1252C60.0543 38.4221 56.9988 39.6538 53.4205 39.6917H53.3369C50.1982 39.6917 47.4915 38.8605 45.4292 37.198L45.1109 39.2156H40.8574V3.64941H45.7478V15.6635C47.81 14.122 50.3574 13.2833 53.2991 13.2833H53.8979C61.0932 13.5629 65.7028 18.6783 65.6647 26.4912ZM60.335 26.4535C60.335 21.0962 57.8709 17.6885 53.8524 17.4467H53.4205C49.0837 17.4467 46.4224 20.8998 46.4224 26.4912C46.4224 32.0827 49.0456 35.5282 53.3369 35.5282H53.5341C57.7115 35.4149 60.2969 31.9617 60.335 26.4535ZM91.7837 26.5668C91.7837 30.4958 90.5859 33.8281 88.3645 36.2006C86.1355 38.543 83.0346 39.7747 79.4179 39.7747C70.9492 39.7747 67.0143 34.5761 67.0143 26.5289C67.0143 22.6074 68.2047 19.2752 70.4337 16.8951C72.6628 14.5149 75.756 13.2833 79.3801 13.2833C86.8937 13.2833 91.7837 18.4819 91.7837 26.5668ZM86.3705 26.4912C86.3705 20.8998 83.7473 17.4467 79.456 17.4467C75.1268 17.4467 72.4579 20.8998 72.4579 26.4912C72.4579 32.0827 75.0814 35.5282 79.3801 35.5282C83.6714 35.5282 86.3705 32.0827 86.3705 26.4912ZM105.772 35.5282C110.465 35.5282 113.21 32.9516 113.445 32.672L115.552 36.1252C115.552 36.1252 112.171 39.6917 105.135 39.6917C98.0993 39.6917 93.0955 34.8558 93.0955 26.5668C93.0955 18.2023 98.3419 13.3287 105.135 13.3287C111.974 13.3287 115.992 18.4441 115.992 25.6979L115.954 27.7229H98.3419C98.3797 32.8306 101.003 35.5282 105.772 35.5282ZM104.976 17.2124C100.526 17.2124 98.5769 20.862 98.3419 23.9525H111.102C111.102 20.4993 109.388 17.2124 104.976 17.2124Z" fill="#77718E" fill-opacity="0.2"/>
<path d="M31.5545 15.6256L28.3701 12.4521L29.7651 11.024L31.5545 9.24078L34.7766 12.4521L31.5545 15.6256ZM31.5545 6.39215L28.3701 3.21862L30.1973 1.39007L31.5545 0.00732422L34.7691 3.21862L31.5545 6.39215ZM36.2096 11.0316L32.9874 7.82024L34.7766 6.07481L36.2096 4.64672L39.3864 7.82024L36.2096 11.0316Z" fill="#77718E" fill-opacity="0.2"/>
<path d="M17.438 34.8177C10.2885 34.8177 5.63334 29.0676 5.63334 20.6577C5.63334 12.2554 10.5235 6.5053 17.5973 6.5053C22.8059 6.5053 25.1107 9.11969 26.9001 11.0238L30.0843 7.8125C28.4162 6.06704 25.0348 1.82812 17.438 1.82812C8.09739 1.82812 0.0683594 8.84766 0.0683594 20.703C0.0683594 32.5962 7.26339 39.6535 17.203 39.6535C24.5952 39.6535 28.6134 35.7698 30.1602 33.7446L26.8621 30.4579C25.4292 32.1201 22.3282 34.8177 17.438 34.8177Z" fill="#77718E" fill-opacity="0.2"/>
</g>
</g>
<defs>
<clipPath id="clip0_8026_344">
<rect width="116" height="40" fill="white"/>
</clipPath>
</defs>
</svg>
