<svg width="168" height="40" viewBox="0 0 168 40" fill="none" xmlns="http://www.w3.org/2000/svg">
<g clip-path="url(#clip0_8026_353)">
<mask id="mask0_8026_353" style="mask-type:luminance" maskUnits="userSpaceOnUse" x="0" y="0" width="168" height="40">
<path d="M168 0H0V39.9862H168V0Z" fill="white"/>
</mask>
<g mask="url(#mask0_8026_353)">
<path fill-rule="evenodd" clip-rule="evenodd" d="M83.0945 28.4121C83.0945 34.0743 78.7853 39.8222 67.1181 39.8222H45.564V0.0976562H67.2C78.7695 0.0976562 82.6651 4.65469 82.6651 9.98877C82.6651 13.4563 81.7401 17.6814 76.4081 19.3645C76.4081 19.3645 83.075 21.5629 83.0945 28.4121ZM55.9622 15.319L70.4203 15.3229C72.1026 15.1394 73.3714 13.636 73.3714 12.0193C73.3714 10.4027 72.1026 9.0477 70.5023 8.79778H55.7986L55.9622 15.319ZM73.0901 27.2407C73.0901 25.542 71.7552 24.105 69.9714 23.9371H55.7787V30.6106H69.6434C71.5875 30.6106 73.1059 29.0916 73.0901 27.2407ZM131.496 0.179659H168V8.79778H141.645V15.2214H165.393V23.9215H141.645V30.8566H168V39.9862H131.496V0.179659ZM125.239 10.68C125.239 17.6814 119.068 19.4621 119.068 19.4621C119.068 19.4621 125.075 21.2466 125.075 27.1548V40.002H115.106V29.5992C115.106 26.4792 112.666 24.0191 109.446 23.9371H98.2901V40.002H88.157V0.179659H110.207C117.467 0.179659 125.157 1.94468 125.239 10.68ZM115.785 11.6718C115.52 10.0669 114.165 8.8798 112.483 8.8798H98.2081V15.2214H112.483C114.267 15.2214 115.617 13.7844 115.785 12.5114V11.6718ZM39.2912 30.3451V39.9042H26.4531L23.0689 39.8222C16.8157 39.4904 13.7789 38.4672 11.7492 37.6276C5.83948 34.9334 1.69803 29.9507 0.42944 23.941C0.179626 22.668 0.0976562 21.313 0.0976562 19.9619C0.0976562 15.6509 1.53409 11.5898 4.15713 8.12225C6.26886 5.41613 9.15732 3.22158 12.2761 1.78457C15.6447 0.511577 18.943 0.265568 20.9728 0.183564H39.2247V9.2117H38.8971C38.7331 9.2117 22.9205 9.0477 20.0515 9.37963C13.9779 10.1372 10.0824 14.1983 10.0824 19.6964C10.0824 24.0894 12.7874 29.5016 20.395 30.1811C25.1181 30.5911 38.8151 30.3451 38.9787 30.3451H39.2912Z" fill="#77718E" fill-opacity="0.2"/>
</g>
</g>
<defs>
<clipPath id="clip0_8026_353">
<rect width="168" height="40" fill="white"/>
</clipPath>
</defs>
</svg>
