<svg width="128" height="40" viewBox="0 0 128 40" fill="none" xmlns="http://www.w3.org/2000/svg">
<path d="M4.53144 27.3135C3.17989 26.5968 2.14636 25.4819 1.35133 24.1282C0.635798 22.7745 0.238281 21.2615 0.238281 19.6689C0.238281 18.1559 0.635798 16.5633 1.35133 15.2892C2.06685 13.9355 3.17989 12.9003 4.53144 12.104C5.96251 11.3077 7.55257 10.9095 9.14262 10.9095C11.0507 10.8299 12.8793 11.4669 14.4693 12.5021L12.7203 15.2096C11.6867 14.4133 10.4942 13.9355 9.14262 13.9355C8.10909 13.9355 7.07554 14.1744 6.20102 14.7318C5.40599 15.2096 4.69044 16.0059 4.29293 16.8818C3.81592 17.7578 3.57741 18.7929 3.65692 19.8281C3.65692 20.8633 3.89544 21.8189 4.29293 22.6948C5.24699 24.5263 7.07554 25.6412 9.14262 25.6412C10.4147 25.6412 11.6867 25.1634 12.7203 24.3671L14.4693 26.9153C12.8793 28.0301 11.0507 28.5876 9.14262 28.5876C7.55257 28.5078 5.96251 28.1096 4.53144 27.3135Z" fill="#77718E" fill-opacity="0.2"/>
<path d="M22.1809 14.0946V18.4743H28.3027V21.0225H22.1809V25.4022H29.5747V28.1097H18.8418V11.3872H29.4951V14.0946H22.1809Z" fill="#77718E" fill-opacity="0.2"/>
<path d="M38.797 21.341H37.7636V28.1097H34.5039V11.3872H40.4667C41.4208 11.3872 42.4542 11.5465 43.3287 11.9446C44.2032 12.3428 44.9188 12.9002 45.4753 13.6965C46.0318 14.4928 46.35 15.4484 46.2704 16.4039C46.35 17.5187 45.9525 18.6336 45.1573 19.4299C44.3625 20.2262 43.3287 20.8632 42.2157 21.1021L47.7015 28.1097H43.7263L38.797 21.341ZM37.7636 18.8725H39.7511C40.7846 18.8725 41.5001 18.6336 42.0567 18.2354C42.6132 17.8373 42.9312 17.1206 42.8518 16.4835C42.8518 15.7669 42.6132 15.0502 42.0567 14.6521C41.5001 14.1743 40.7052 14.015 39.6718 14.015H37.8432L37.7636 18.8725Z" fill="#77718E" fill-opacity="0.2"/>
<path d="M54.4598 28.1097H51.2002V11.3872H54.4598V28.1097Z" fill="#77718E" fill-opacity="0.2"/>
<path d="M70.4395 12.5022C71.7115 13.1392 72.8246 14.1744 73.5401 15.4485C74.2557 16.7226 74.6532 18.2355 74.5736 19.7485C74.5736 21.2615 74.2557 22.7745 73.5401 24.0486C72.8246 25.3227 71.7115 26.3578 70.4395 27.0745C68.9288 27.7912 67.2594 28.1894 65.5898 28.1894H60.1836V11.4669H65.5898C67.2594 11.3873 68.9288 11.7058 70.4395 12.5022ZM69.6443 23.8893C70.6781 22.9337 71.2343 21.5004 71.2343 19.6689C71.2343 17.917 70.6781 16.5633 69.6443 15.5281C68.6109 14.5725 67.1002 14.0151 65.1922 14.0151H63.4432V25.3227H65.1922C67.1798 25.4023 68.6109 24.9245 69.6443 23.8893Z" fill="#77718E" fill-opacity="0.2"/>
<path d="M82.286 28.1097H79.0264V11.3872H82.286V28.1097Z" fill="#77718E" fill-opacity="0.2"/>
<path d="M97.6293 24.2873H90.8717L89.52 28.1097H85.9424L92.541 11.3872H95.8803L102.479 28.1097H98.9014L97.6293 24.2873ZM96.6752 21.7392L94.2107 14.8113L91.7462 21.7392H96.6752Z" fill="#77718E" fill-opacity="0.2"/>
<path d="M120.924 11.3872V28.1097H117.903L109.714 16.5632V28.1097H106.534V11.3872H109.555L117.665 22.9336V11.3872H120.924Z" fill="#77718E" fill-opacity="0.2"/>
</svg>
