<svg width="44" height="44" viewBox="0 0 44 44" fill="none" xmlns="http://www.w3.org/2000/svg">
<path d="M3.66602 19.2497C3.66602 17.8366 3.69069 16.4571 3.73768 15.1252C3.89119 10.7739 3.96795 8.59817 5.73781 6.815C7.50767 5.03183 9.7448 4.93611 14.219 4.74469C16.6738 4.63966 19.2877 4.58301 21.9993 4.58301C24.711 4.58301 27.3248 4.63966 29.7796 4.74469C34.2539 4.93611 36.4911 5.03183 38.2608 6.815C40.0307 8.59817 40.1075 10.7739 40.261 15.1252C40.3079 16.4571 40.3327 17.8366 40.3327 19.2497C40.3327 20.6628 40.3079 22.0422 40.261 23.3741C40.1075 27.7255 40.0307 29.9012 38.2608 31.6844C36.4911 33.4675 34.2539 33.5632 29.7795 33.7546C28.434 33.8122 27.0406 33.8553 25.6097 33.8824C24.251 33.9081 23.5716 33.9211 22.9747 34.1484C22.3777 34.3758 21.8756 34.8064 20.8709 35.6677L16.8752 39.094C16.6327 39.3019 16.3237 39.4163 16.0042 39.4163C15.2651 39.4163 14.666 38.8172 14.666 38.0782V33.7732C14.5165 33.7671 14.3675 33.7611 14.219 33.7546C9.74478 33.5632 7.50767 33.4675 5.73781 31.6843C3.96795 29.9012 3.89119 27.7255 3.73768 23.3741C3.69069 22.0422 3.66602 20.6628 3.66602 19.2497Z" stroke="#E75A0F" stroke-width="2.4" stroke-linecap="round" stroke-linejoin="round"/>
<path d="M21.9844 27.5H21.9994" stroke="#E75A0F" stroke-width="2.4" stroke-linecap="round" stroke-linejoin="round"/>
<path d="M17.416 15.5833C17.416 13.052 19.4681 11 21.9993 11C24.5306 11 26.5827 13.052 26.5827 15.5833C26.5827 17.4814 25.429 19.1099 23.7845 19.8061C22.852 20.2008 21.9993 20.9875 21.9993 22" stroke="#E75A0F" stroke-width="2.4" stroke-linecap="round" stroke-linejoin="round"/>
</svg>
