<svg width="32" height="32" viewBox="0 0 32 32" fill="none" xmlns="http://www.w3.org/2000/svg">
<path d="M25.321 25.3332H25.3337M25.321 25.3332C24.4907 26.1565 22.9861 25.9514 21.9309 25.9514C20.6357 25.9514 20.0119 26.2048 19.0876 27.1292C18.3005 27.9163 17.2453 29.3331 16.0004 29.3332C14.7554 29.3331 13.7002 27.9163 12.9131 27.1292C11.9887 26.2048 11.365 25.9514 10.0697 25.9514C9.01456 25.9514 7.5099 26.1565 6.67965 25.3332C5.84274 24.5033 6.0487 22.9924 6.0487 21.9304C6.0487 20.5884 5.7552 19.9713 4.7995 19.0156C3.37784 17.594 2.66701 16.8831 2.66699 15.9998C2.667 15.1165 3.37782 14.4057 4.79946 12.9841C5.65259 12.1309 6.0487 11.2855 6.0487 10.0692C6.0487 9.01404 5.84365 7.50936 6.66699 6.6791C7.49689 5.84222 9.0078 6.04818 10.0698 6.04818C11.286 6.04818 12.1314 5.65211 12.9845 4.799C14.4062 3.37733 15.117 2.6665 16.0003 2.6665C16.8836 2.6665 17.5945 3.37733 19.0161 4.799C19.8691 5.65193 20.7143 6.04818 21.9309 6.04818C22.9861 6.04818 24.4908 5.84313 25.3211 6.6665C26.1579 7.49641 25.952 9.00729 25.952 10.0692C25.952 11.4113 26.2455 12.0283 27.2012 12.9841C28.6228 14.4057 29.3336 15.1165 29.3337 15.9998C29.3336 16.8831 28.6228 17.594 27.2012 19.0156C26.2454 19.9713 25.952 20.5884 25.952 21.9304C25.952 22.9924 26.1579 24.5033 25.321 25.3332Z" stroke="#FEFFFF" stroke-width="1.5"/>
<path d="M12 17.1903L14.4 19.3332L20 12.6665" stroke="#FEFFFF" stroke-width="1.5" stroke-linecap="round" stroke-linejoin="round"/>
</svg>
