<svg width="143" height="40" viewBox="0 0 143 40" fill="none" xmlns="http://www.w3.org/2000/svg">
<g clip-path="url(#clip0_8026_368)">
<mask id="mask0_8026_368" style="mask-type:luminance" maskUnits="userSpaceOnUse" x="0" y="0" width="143" height="40">
<path d="M143 0H0V39.7711H143V0Z" fill="white"/>
</mask>
<g mask="url(#mask0_8026_368)">
<path d="M0.0185547 0.0378466C3.05133 0.0284665 6.08407 0.0378466 9.11684 0.0284665C13.5017 -0.0184334 17.9522 0.957084 21.7549 3.16138C25.2759 5.17807 28.1397 8.3485 29.6326 12.1286C31.2757 16.2652 31.4167 20.9552 30.1302 25.2044C29.4355 23.3659 28.2054 21.7431 26.628 20.5706C24.3652 18.8728 21.6516 17.9255 18.9569 17.1563C16.5063 16.4528 13.9711 16.0589 11.5205 15.3554C8.87271 14.6143 6.19675 13.7795 3.90575 12.2318C2.76025 11.4533 1.76498 10.4309 1.13589 9.1927C0.319013 7.63564 0.121838 5.86281 0.0185547 4.1369V0.0378466ZM0.0185547 18.5352C2.0091 19.717 4.09354 20.7488 6.27186 21.5086C10.4501 23 14.8913 23.5066 19.079 24.9417C20.8442 25.5608 22.6845 26.2643 23.9708 27.6806C25.1633 28.9844 25.3323 30.8981 25.1069 32.5769C24.7126 34.9501 22.891 36.8355 20.8066 37.9049C17.6518 39.5275 13.9899 39.9026 10.4877 39.7341C8.05584 39.4901 5.68035 38.8146 3.40811 37.9329C2.24383 37.4546 1.07016 36.9669 0.0185547 36.2632V18.5352Z" fill="#77718E" fill-opacity="0.2"/>
<path fill-rule="evenodd" clip-rule="evenodd" d="M48.7683 0.0559267C51.7916 0.0934464 54.9087 1.4254 56.6645 3.94863C58.1668 6.06849 58.5332 8.91063 57.735 11.3682C56.6553 14.7075 53.3878 16.9211 50.0359 17.5308C47.632 17.8873 45.1907 17.4277 42.8904 16.7429C42.9093 11.1806 42.8999 5.61826 42.9093 0.0559267C44.8716 0.0559267 46.8058 0.0465467 48.7683 0.0559267ZM45.2285 15.1765C47.1907 15.6267 49.3409 15.7674 51.2562 15.0264C53.0966 14.3416 54.627 12.8315 55.2843 10.9742C55.9509 9.1076 55.8008 6.92206 54.7117 5.23369C53.8665 3.92049 52.5052 2.98249 51.0217 2.54162C49.1438 1.95068 47.1719 2.21332 45.2471 2.15704C45.2471 6.49997 45.2471 10.8335 45.2285 15.1765ZM90.0719 0.684386C90.8544 0.678132 91.6368 0.678132 92.4193 0.684386C92.4288 1.96006 92.4099 3.23575 92.4288 4.51143C93.1924 4.50517 93.9592 4.50203 94.7291 4.50203C94.7291 5.16489 94.7291 5.8246 94.7291 6.4812C93.9592 6.4812 93.1893 6.4812 92.4193 6.4812C92.4193 8.94815 92.4194 11.4151 92.4288 13.8914C92.4288 14.4823 92.532 15.2233 93.1424 15.486C93.6494 15.6267 94.194 15.561 94.6727 15.3453C94.9261 15.955 95.1609 16.5647 95.3958 17.1744C94.1471 17.6809 92.5884 17.8685 91.4052 17.0806C90.4193 16.4334 90.0813 15.1858 90.0719 14.0602C90.0627 9.60475 90.0719 5.13989 90.0719 0.684386ZM124.785 0.815706C124.813 0.787566 124.888 0.721906 124.925 0.693766C125.658 0.656246 126.39 0.693766 127.122 0.675006C127.141 6.24672 127.122 11.8184 127.132 17.3901C126.343 17.3901 125.554 17.3995 124.766 17.3901C124.775 11.8653 124.756 6.34052 124.785 0.815706ZM69.2745 4.74592C70.758 5.30872 71.9412 6.575 72.4483 8.06643C72.9081 9.3046 72.9176 10.6365 72.8612 11.9404C69.3403 11.9685 65.8288 11.9404 62.2981 11.9591C62.5518 13.2723 63.3123 14.5386 64.5329 15.1295C66.6642 16.2364 69.4155 15.5517 70.9928 13.807C71.4999 14.2291 72.007 14.6699 72.5137 15.092C71.4247 16.2458 70.0539 17.1838 68.4577 17.4652C66.1574 17.9154 63.5845 17.3714 61.8568 15.7299C60.4391 14.4542 59.8102 12.5032 59.8757 10.6365C59.9415 9.33272 60.2043 7.982 60.9273 6.8658C61.6786 5.6464 62.9556 4.81157 64.345 4.48329C64.9459 4.35195 65.5845 4.26755 66.2043 4.24877C67.2559 4.23003 68.2981 4.38009 69.2745 4.74592ZM64.5798 6.51875C63.1244 6.99712 62.3453 8.5448 62.3264 9.98932C65.04 9.98932 67.7536 9.99872 70.4763 9.98932C70.373 8.71366 69.866 7.3348 68.6548 6.71572C67.8662 6.34052 66.9928 6.17169 66.1196 6.21857C65.594 6.24672 65.068 6.36866 64.5798 6.51875ZM98.0624 6.04035C98.8604 4.91475 100.269 4.38009 101.611 4.27692C103.574 4.17375 105.593 4.69903 107.236 5.78709C106.851 6.34052 106.494 6.91269 106.118 7.47549C104.888 6.6688 103.433 6.18106 101.959 6.17169C101.067 6.22795 99.9589 6.575 99.7335 7.55992C99.527 8.22589 100.09 8.78869 100.644 9.05132C102.494 9.97057 104.757 9.99872 106.381 11.3682C107.564 12.3156 107.696 14.0884 107.048 15.3734C106.409 16.6116 105.057 17.3151 103.715 17.5308C101.245 17.8873 98.6819 17.1275 96.7102 15.6361C97.1235 15.1202 97.527 14.5949 97.912 14.0509C99.5084 15.1014 101.405 15.9362 103.349 15.6455C104.222 15.5047 105.217 14.8951 105.189 13.9008C105.245 13.1222 104.513 12.6251 103.874 12.3812C102.062 11.6496 99.9494 11.5558 98.4096 10.252C97.1798 9.23892 97.1798 7.28789 98.0624 6.04035ZM75.0583 5.65577C77.2273 4.62397 79.6592 4.17375 82.0627 4.22063C83.4618 4.24877 84.9173 4.76469 85.8562 5.84337C86.6919 6.7626 87.0674 8.04766 87.086 9.27646C87.086 11.9779 87.086 14.6824 87.086 17.3901C86.3101 17.3901 85.5339 17.3901 84.7577 17.3901C84.7483 14.8575 84.7668 12.3249 84.7483 9.80172C84.7294 8.7418 84.3913 7.62557 83.5182 6.9596C82.6825 6.2936 81.5559 6.1998 80.5229 6.27486C79.4432 6.33115 78.3727 6.575 77.3775 7.01586C77.3775 10.4771 77.3775 13.9383 77.3775 17.3995C76.6076 17.3901 75.8282 17.3901 75.0583 17.3901C75.0583 13.4787 75.0583 9.56723 75.0583 5.65577ZM116.907 4.24877C118.597 4.40823 120.296 5.14926 121.367 6.51875C122.616 8.10395 122.869 10.2238 122.653 12.1749C122.446 13.9383 121.592 15.7017 120.052 16.6773C118.879 17.4652 117.433 17.6903 116.043 17.6153C114.625 17.6528 113.236 17.2494 111.902 16.8086C111.902 18.2812 111.893 19.7633 111.902 21.2359C111.123 21.2453 110.362 21.2359 109.583 21.2359C109.593 16.0394 109.593 10.8429 109.583 5.6464C111.574 4.7084 113.761 4.18312 115.959 4.21126C116.271 4.21126 116.588 4.22377 116.907 4.24877ZM111.921 7.03463C111.874 9.51095 111.94 11.9873 111.902 14.4729C113.32 15.2609 114.935 15.6548 116.559 15.6455C117.583 15.6079 118.663 15.2609 119.329 14.4261C120.381 13.1316 120.409 11.3588 120.249 9.78297C120.08 8.3572 119.17 6.97835 117.761 6.54689C117.048 6.32175 116.296 6.21857 115.555 6.21857C114.306 6.22795 113.057 6.53749 111.921 7.03463ZM140.502 4.50203C141.328 4.50203 142.155 4.50203 142.99 4.5208V4.82095V4.59583C141.019 9.0138 139.15 13.4693 137.207 17.8967C136.653 19.1161 135.883 20.3448 134.634 20.9451C133.028 21.658 131.15 21.3579 129.601 20.6262C129.876 20.0259 130.152 19.4256 130.427 18.8253C131.301 19.2661 132.324 19.4913 133.3 19.2567C134.258 18.9566 134.737 17.9998 135.178 17.1744C133.085 12.9628 131.066 8.72303 129 4.50203C129.855 4.51143 130.709 4.51143 131.573 4.49266C133.188 7.87883 134.737 11.2838 136.324 14.6887C137.714 11.2931 139.106 7.8976 140.502 4.50203ZM44.6462 23.1588C46.2518 21.9676 48.3645 21.7518 50.2987 21.9676C52.1671 22.1458 53.9698 22.8962 55.4252 24.0593L55.4441 24.2C55.0403 24.7909 54.5427 25.3068 54.1108 25.879C52.7306 24.7909 51.0592 24.0405 49.2845 23.9655C48.0639 23.9092 46.712 24.125 45.8199 25.0254C44.8341 25.9447 44.9748 27.8113 46.1955 28.4773C48.3456 29.7624 50.9934 29.6216 53.2188 30.719C54.3362 31.2256 55.3969 32.0793 55.7727 33.2893C56.2984 34.9213 55.8665 36.863 54.5801 38.0356C53.1719 39.3487 51.1624 39.7896 49.2845 39.705C46.5899 39.7239 43.989 38.5981 41.9609 36.863C42.468 36.3096 42.9842 35.7561 43.4633 35.1839C44.8621 36.3939 46.5429 37.3601 48.4114 37.5853C49.9043 37.7541 51.6506 37.7164 52.8244 36.6284C53.5754 35.9719 53.7258 34.8461 53.4064 33.9459C52.9182 32.9047 51.7164 32.5387 50.7022 32.2293C48.5993 31.6664 46.3081 31.4601 44.4772 30.1844C43.4161 29.4621 42.7589 28.2146 42.7872 26.9202C42.6839 25.4475 43.4539 24.003 44.6462 23.1588ZM58.8241 23.0932C59.6066 23.0932 60.3891 23.0932 61.1716 23.0932C61.1716 23.8248 61.1716 24.5564 61.1716 25.2881C60.3891 25.2881 59.6066 25.2881 58.8241 25.2881C58.8241 24.5564 58.8241 23.8248 58.8241 23.0932ZM117.949 27.7738C117.958 31.6759 117.977 35.5873 117.977 39.4893C117.188 39.4987 116.4 39.4893 115.611 39.4893C115.611 39.1704 115.611 38.8484 115.611 38.5233C113.686 39.4799 111.47 40.0147 109.33 39.6207C107.762 39.283 106.381 38.2324 105.639 36.8161C104.869 35.3716 104.672 33.6833 104.823 32.0793C104.973 30.6253 105.564 29.1621 106.626 28.1396C107.799 26.9859 109.442 26.4137 111.067 26.3386C111.367 26.3199 111.649 26.3105 111.949 26.3199C114.024 26.3574 116.08 26.8733 117.949 27.7738ZM110.212 28.5242C108.804 28.8244 107.658 29.9687 107.358 31.3664C107.02 32.8953 107.076 34.593 107.827 36.0001C108.372 37.0507 109.546 37.6979 110.719 37.6884C112.484 37.8199 114.137 37.0787 115.611 36.2159C115.611 33.8521 115.621 31.4976 115.611 29.1433C114.569 28.665 113.423 28.3741 112.268 28.3272C111.574 28.2991 110.879 28.3741 110.212 28.5242ZM64.6456 27.558C66.3919 26.4512 68.5515 26.1604 70.5704 26.3855C71.6126 26.5169 72.5795 26.9202 73.4904 27.4079C73.1524 28.027 72.8049 28.6367 72.4574 29.2464C70.8612 28.1959 68.6642 27.8863 66.9928 28.9461C67.0117 32.4544 66.9928 35.9719 67.0022 39.4893C66.2229 39.4893 65.4344 39.4893 64.6456 39.4893C64.6456 35.5121 64.655 31.5353 64.6456 27.558ZM84.0158 27.0421C85.5182 27.755 86.7011 29.115 87.2081 30.7096C87.8185 32.6513 87.6872 34.865 86.6542 36.6379C86.0158 37.7636 84.9736 38.617 83.7999 39.1236C82.3353 39.7707 80.6919 39.8364 79.1241 39.6864C77.0208 39.4424 74.9739 38.2324 74.035 36.3001C72.8238 33.805 73.0677 30.5221 74.9834 28.4397C76.0161 27.3048 77.4901 26.6294 78.9925 26.4043C79.4149 26.348 79.8282 26.3199 80.2601 26.3199C81.5465 26.2917 82.8515 26.4887 84.0158 27.0421ZM79.2273 28.3929C77.8002 28.6273 76.5043 29.6216 76.035 31.0099C75.5185 32.5293 75.5465 34.293 76.3353 35.7187C76.9362 36.8347 78.1288 37.529 79.3586 37.7073C80.9078 37.9699 82.673 37.6979 83.8657 36.6004C85.0769 35.3996 85.3866 33.5519 85.0863 31.929C84.8984 30.6721 84.1568 29.4904 83.03 28.8899C82.1662 28.4116 81.171 28.2897 80.1943 28.3272C79.8657 28.3366 79.5465 28.3553 79.2273 28.3929ZM90.1002 27.7738C92.2314 26.742 94.6353 26.2917 97.0108 26.3199C98.3441 26.3199 99.7244 26.7607 100.701 27.6987C101.734 28.693 102.156 30.1564 102.165 31.5633C102.175 34.199 102.165 36.8441 102.165 39.4893C101.386 39.4893 100.598 39.4893 99.8087 39.4893C99.8182 36.9567 99.8182 34.4336 99.8182 31.901C99.8087 30.8973 99.4801 29.8373 98.7102 29.1527C98.053 28.5899 97.1704 28.3553 96.3158 28.3553C94.9919 28.3272 93.6586 28.5899 92.4382 29.1059C92.4474 32.567 92.4382 36.0281 92.4474 39.4893C91.6589 39.4893 90.8795 39.4893 90.0907 39.4893C90.1002 35.5873 90.0907 31.6759 90.1002 27.7738ZM58.8241 26.6107C59.6066 26.6107 60.3891 26.6107 61.1716 26.6107C61.1716 30.9067 61.1716 35.1933 61.1716 39.4893C60.3891 39.4893 59.6066 39.4893 58.8241 39.4893C58.8335 35.1933 58.8241 30.9067 58.8241 26.6107Z" fill="#77718E" fill-opacity="0.2"/>
</g>
</g>
<defs>
<clipPath id="clip0_8026_368">
<rect width="143" height="40" fill="white"/>
</clipPath>
</defs>
</svg>
