<svg width="192" height="40" viewBox="0 0 192 40" fill="none" xmlns="http://www.w3.org/2000/svg">
<g clip-path="url(#clip0_8026_375)">
<mask id="mask0_8026_375" style="mask-type:luminance" maskUnits="userSpaceOnUse" x="0" y="0" width="192" height="40">
<path d="M192 0H0V39.7038H192V0Z" fill="white"/>
</mask>
<g mask="url(#mask0_8026_375)">
<mask id="mask1_8026_375" style="mask-type:luminance" maskUnits="userSpaceOnUse" x="-41" y="-39" width="796" height="616">
<path d="M-40.4912 -38.6987H754.015V576.458H-40.4912V-38.6987Z" fill="white"/>
</mask>
<g mask="url(#mask1_8026_375)">
<path d="M0.0849609 39.6065L22.8599 0L26.6172 6.58888L11.4785 32.9688H19.0418L30.4353 13.2143L34.2413 19.7545L26.6172 32.9688H34.2413L38.0107 26.3799L45.5741 39.6065H0.0849609Z" fill="#77718E" fill-opacity="0.2"/>
<path fill-rule="evenodd" clip-rule="evenodd" d="M112.744 18.9016C113.193 20.3996 113.449 21.9586 113.4 23.5175V24.8328H98.4438C98.5409 26.1847 99.1492 27.4392 100.146 28.2917C101.155 29.0955 102.408 29.5461 103.709 29.5461C104.767 29.5461 105.873 29.3026 106.822 28.7423C107.624 28.243 108.378 27.5853 108.974 26.8911L112.488 29.5461C111.491 30.8615 110.178 31.9089 108.682 32.5666C107.272 33.1755 105.715 33.4678 104.219 33.4678C102.76 33.4678 101.362 33.2242 100.049 32.7127C98.7479 32.2621 97.5924 31.5557 96.6439 30.6545C95.6836 29.7045 94.881 28.5962 94.3826 27.3905C93.2271 24.6745 93.2271 21.6054 94.3826 18.9016C94.881 17.635 95.6836 16.5389 96.6439 15.6255C97.5924 14.7242 98.7479 13.9691 100.049 13.5185C101.362 13.0191 102.76 12.7634 104.219 12.8121C105.472 12.7634 106.773 13.0191 107.977 13.5185C109.083 13.9691 110.032 14.6755 110.883 15.5768C111.686 16.5389 112.342 17.6959 112.744 18.9016ZM108.524 21.1548C108.475 19.7055 108.025 18.5971 107.126 17.7446C106.275 16.8921 105.071 16.4902 103.514 16.4902C102.055 16.4902 100.851 16.8921 100 17.7446C99.1004 18.6946 98.5532 19.9003 98.4438 21.1548H108.524ZM127.736 12.8608C128.036 12.9339 128.336 13.0029 128.636 13.0678V17.8421C128.206 17.7446 127.805 17.6594 127.432 17.5863C127.035 17.5213 126.634 17.4889 126.228 17.4889C125.329 17.4401 124.331 17.635 123.529 18.0978C122.856 18.4632 122.305 18.9463 121.875 19.5471C121.571 20.0586 121.316 20.6067 121.17 21.2035C121.073 21.6054 120.963 22.0073 120.963 22.4701V32.9685H116.051V13.2627H120.963V16.4293H121.073C121.571 15.3332 122.374 14.371 123.371 13.7255C124.429 13.1166 125.632 12.7634 126.885 12.8121C127.152 12.8121 127.436 12.8283 127.736 12.8608ZM148.249 18.9016C148.699 20.3996 148.955 21.9586 148.906 23.5175V24.8328H133.962C134.059 26.1847 134.655 27.4392 135.664 28.2917C136.661 29.0955 137.914 29.5461 139.227 29.5461C140.321 29.5461 141.379 29.3026 142.328 28.7423C143.13 28.243 143.884 27.5853 144.492 26.8911L148.006 29.5461C146.997 30.8615 145.696 31.9089 144.188 32.5666C142.79 33.1755 141.282 33.4678 139.726 33.4678C138.315 33.4678 136.917 33.2242 135.567 32.7127C134.302 32.2621 133.159 31.5557 132.15 30.6545C131.202 29.7045 130.399 28.5962 129.888 27.3905C128.794 24.6258 128.794 21.6054 129.888 18.9016C130.399 17.635 131.202 16.5389 132.15 15.6255C133.159 14.7242 134.302 13.9691 135.567 13.5185C136.917 13.0191 138.315 12.7634 139.726 12.8121C140.978 12.7634 142.279 13.0191 143.483 13.5185C144.589 13.9691 145.599 14.6755 146.34 15.5768C147.204 16.5389 147.848 17.6959 148.249 18.9016ZM144.042 21.1548C143.993 19.7055 143.531 18.5971 142.68 17.7446C141.78 16.8921 140.577 16.4902 139.02 16.4902C137.573 16.4902 136.37 16.8921 135.506 17.7446C134.606 18.6946 134.059 19.8516 133.962 21.1548H144.042ZM165.856 24.1265C166.359 24.8653 166.61 25.8681 166.61 27.1347C166.659 28.1943 166.404 29.2538 165.856 30.1551C165.358 30.9102 164.701 31.6166 163.899 32.0672C163.048 32.5666 162.148 32.9198 161.187 33.1755C160.19 33.3704 159.189 33.4678 158.184 33.4678C156.725 33.4678 155.326 33.273 153.964 32.8223C152.615 32.3108 151.411 31.507 150.511 30.4596L153.77 27.3417C154.366 28.0481 155.071 28.6449 155.825 29.0955C156.579 29.607 157.527 29.8019 158.439 29.8019C158.804 29.8019 159.169 29.7532 159.534 29.6558C159.935 29.607 160.287 29.4487 160.64 29.2538C160.944 29.0468 161.187 28.8032 161.442 28.5475C161.99 27.6949 161.747 26.5866 160.944 26.0386C160.336 25.6367 159.692 25.3809 158.986 25.1739C158.184 24.979 157.333 24.7963 156.433 24.6258C155.521 24.4796 154.67 24.1752 153.867 23.7733C153.113 23.3714 152.42 22.8111 151.91 22.1169C151.362 21.4105 151.107 20.3996 151.107 19.1452C151.107 18.1465 151.362 17.1844 151.812 16.2831C152.213 15.528 152.822 14.8216 153.563 14.3223C154.366 13.7743 155.229 13.3723 156.129 13.1653C158.33 12.6172 160.737 12.666 162.902 13.4698C164.154 13.8717 165.261 14.7242 166.002 15.7838L162.744 18.7433C161.892 17.4401 160.446 16.685 158.889 16.7338C158.233 16.7338 157.576 16.8921 156.98 17.2331C156.372 17.5376 156.031 18.1465 156.031 18.8407C156.031 19.401 156.323 19.9003 156.834 20.1561C157.43 20.4606 158.087 20.6554 158.78 20.8625C159.582 21.0086 160.385 21.2035 161.345 21.4105C162.245 21.646 163.096 21.9626 163.899 22.3605C164.701 22.7624 165.358 23.3714 165.856 24.1265ZM176.083 26.0873C176.034 26.8911 176.289 27.6949 176.642 28.4013C177.043 28.9981 177.797 29.3026 178.843 29.3026C179.346 29.3026 179.832 29.2498 180.302 29.1443C180.703 29.0468 181.153 28.9006 181.506 28.6936V32.8223C180.898 33.0659 180.253 33.273 179.597 33.3217C178.948 33.4191 178.296 33.4678 177.639 33.4678C176.545 33.4678 175.438 33.3704 174.429 33.0172C173.675 32.8223 172.982 32.3108 172.471 31.714C171.973 31.0564 171.62 30.3013 171.474 29.5461C171.267 28.5475 171.17 27.4879 171.219 26.4892V17.4889H168.361V13.2627H171.219V10.2058L176.083 8.59814V13.2627H181.506V17.4889H176.083V26.0873ZM71.1575 18.9016C71.6563 20.4118 71.8629 21.9708 71.8141 23.5297V24.8328H56.8581C56.9675 26.1847 57.5631 27.4392 58.5723 28.3039C59.6183 29.1077 60.8221 29.5583 62.1231 29.5583C63.2294 29.5583 64.2873 29.3026 65.2358 28.7545C66.0384 28.243 66.7922 27.5975 67.4488 26.8911L70.9509 29.5583C69.9536 30.8615 68.6043 31.9211 67.0963 32.5666C65.6859 33.1755 64.1902 33.48 62.6338 33.48C61.2234 33.48 59.8249 33.2242 58.4628 32.7249C57.2106 32.2743 56.0555 31.5679 55.0583 30.6666C54.0975 29.7045 53.2953 28.5962 52.7965 27.3905C51.6902 24.6867 51.6902 21.6176 52.7965 18.8529C53.2953 17.6472 54.0975 16.5389 55.0583 15.6376C56.0555 14.6755 57.2106 13.9813 58.4628 13.5185C59.8249 13.0191 61.2234 12.7756 62.6338 12.8243C63.9348 12.7756 65.1874 13.0191 66.3909 13.5185C67.4976 13.9813 68.4948 14.6755 69.297 15.5889C70.0996 16.5389 70.7562 17.6959 71.1575 18.9016ZM66.9381 21.167C66.8897 19.7055 66.4397 18.5485 65.5883 17.7446C64.6886 16.8921 63.4848 16.4902 61.9284 16.4902C60.4692 16.4902 59.3142 16.8921 58.4628 17.7446C57.5631 18.6946 57.0159 19.9003 56.8581 21.167H66.9381ZM94.3338 13.2749L82.6364 33.6261L70.9997 13.2749H76.6783L82.4905 24.1265L82.6364 24.3822L88.6552 13.2749H94.3338ZM185.482 9.2558H184.217V8.7443H187.282V9.2558H185.981V12.666H185.482V9.2558ZM187.78 8.80518H188.583L189.835 11.7769L191.1 8.80518H191.902V12.7268H191.343V9.51157L190.042 12.7268H189.641L188.34 9.51157V12.7268H187.78V8.80518Z" fill="#77718E" fill-opacity="0.2"/>
</g>
</g>
</g>
<defs>
<clipPath id="clip0_8026_375">
<rect width="192" height="40" fill="white"/>
</clipPath>
</defs>
</svg>
