<svg width="129" height="40" viewBox="0 0 129 40" fill="none" xmlns="http://www.w3.org/2000/svg">
<g clip-path="url(#clip0_8026_386)">
<mask id="mask0_8026_386" style="mask-type:luminance" maskUnits="userSpaceOnUse" x="0" y="0" width="274" height="40">
<path d="M274 0H0V39.7138H274V0Z" fill="white"/>
</mask>
<g mask="url(#mask0_8026_386)">
<path d="M17.1997 19.0175C17.1647 18.2827 16.9723 17.5654 16.6573 16.9006C16.3249 16.2533 15.8874 15.6584 15.345 15.1686C14.8026 14.6787 14.1728 14.2938 13.4904 14.0313C12.7905 13.7864 12.0557 13.664 11.3383 13.699C10.5509 13.699 9.76354 13.8739 9.04621 14.1888C8.32882 14.5037 7.68147 14.9586 7.13906 15.5185C6.57917 16.0958 6.15924 16.7606 5.87926 17.4954C5.58181 18.2127 5.44185 19 5.45935 19.7872C5.45935 23.4612 8.01389 26.103 12.3706 26.103H20.6641C20.1742 26.8727 19.5793 27.59 18.8969 28.2024C18.232 28.8322 17.4797 29.357 16.6573 29.7944C15.8525 30.2318 14.9951 30.5642 14.1028 30.7916C13.2105 31.0016 12.3006 31.1241 11.3733 31.1065C6.82412 31.1065 2.72985 28.3773 0.98017 24.1785C-0.752014 19.9797 0.210308 15.1511 3.42972 11.932C6.64915 8.71288 11.4782 7.75064 15.6775 9.50017C19.8767 11.2322 22.6237 15.326 22.6237 19.8747C22.6237 20.1663 22.6121 20.4637 22.5887 20.767C22.5538 21.0585 22.5187 21.3501 22.4837 21.6417C22.4371 21.9333 22.3788 22.2249 22.3088 22.5164C22.2388 22.8081 22.163 23.0938 22.0813 23.3737H9.5536V22.149L13.9628 22.0091C16.2024 21.9217 17.1997 20.7844 17.1997 19.0175Z" fill="#77718E" fill-opacity="0.2"/>
<path fill-rule="evenodd" clip-rule="evenodd" d="M31.9496 15.6056L36.2364 9.32488H42.1503L34.8716 19.472L42.7452 30.4239H36.4639L31.7747 23.6008L27.033 30.4239H21.1191L28.8527 19.7344L21.3466 9.32488H27.628L31.9496 15.6056ZM49.0265 39.119H43.5675V9.32488H49.0265V13.4187C49.0265 13.5237 49.0616 13.5762 49.1315 13.5762C49.1665 13.5762 49.219 13.5412 49.254 13.4712C49.5515 12.7714 49.9539 12.1241 50.4263 11.5293C50.9162 10.9519 51.4761 10.4445 52.106 10.0247C52.7534 9.60477 53.4357 9.28986 54.1706 9.06247C54.8879 8.85249 55.6404 8.73003 56.4103 8.73003C57.0399 8.7417 57.6701 8.81167 58.2998 8.94C58.93 9.06827 59.5361 9.26657 60.1197 9.53479C60.7028 9.7914 61.2508 10.1063 61.7642 10.4796C62.2892 10.8528 62.7616 11.2785 63.1814 11.7567C63.4148 12.0016 63.6362 12.2641 63.8461 12.5439C64.0565 12.8239 64.2544 13.1096 64.4412 13.4012C64.616 13.6928 64.7793 13.9961 64.9311 14.311C65.0829 14.6142 65.2227 14.9291 65.3509 15.2557C65.4791 15.6289 65.5959 16.0021 65.7011 16.3754C65.8057 16.7603 65.8874 17.1452 65.946 17.53C66.0162 17.915 66.0682 18.3056 66.1033 18.7022C66.1384 19.0988 66.1499 19.4895 66.1384 19.8744C66.1499 20.271 66.1384 20.6675 66.1033 21.0641C66.0682 21.4489 66.0162 21.8338 65.946 22.2187C65.8759 22.6153 65.7942 23.0002 65.7011 23.3734C65.5959 23.7583 65.4737 24.1315 65.3334 24.4931C65.2166 24.8197 65.0829 25.1404 64.9311 25.4553C64.7793 25.7586 64.616 26.0618 64.4412 26.365C64.2544 26.6567 64.0565 26.9424 63.8461 27.2223C63.6362 27.4906 63.4148 27.753 63.1814 28.0096C62.7616 28.4761 62.2892 28.9018 61.7642 29.2867C61.2508 29.6599 60.7028 29.9748 60.1197 30.2315C59.5361 30.4881 58.93 30.6864 58.2998 30.8263C57.6701 30.9546 57.0399 31.0187 56.4103 31.0187C55.6404 31.0187 54.8879 30.9138 54.1706 30.6864C53.4357 30.4764 52.7534 30.144 52.106 29.7416C51.4761 29.3217 50.9162 28.8144 50.4263 28.2195C49.9539 27.6422 49.5515 26.9948 49.254 26.2951C49.219 26.2251 49.1665 26.1726 49.1315 26.1726C49.0616 26.1726 49.0265 26.2426 49.0265 26.3301V39.119ZM54.9055 13.2438C54.5089 13.2438 54.1181 13.2846 53.7332 13.3662C53.3482 13.4595 52.9808 13.582 52.6309 13.7336C52.2693 13.8969 51.931 14.0952 51.6161 14.3284C51.3011 14.5617 51.0095 14.8183 50.7412 15.0982C50.4496 15.4248 50.1871 15.7747 49.9539 16.1479C49.7322 16.5212 49.5456 16.9119 49.394 17.3201C49.2307 17.7283 49.114 18.1482 49.044 18.5797C48.9624 19.0113 48.9274 19.4429 48.9391 19.8744C48.9274 20.3059 48.9624 20.7375 49.044 21.169C49.114 21.6005 49.2307 22.0204 49.394 22.4287C49.5456 22.8369 49.7322 23.2276 49.9539 23.6008C50.1871 23.9741 50.4496 24.3239 50.7412 24.6505C51.0095 24.9421 51.3011 25.1987 51.6161 25.4203C51.931 25.6536 52.2693 25.8518 52.6309 26.0151C52.9808 26.1784 53.3482 26.3009 53.7332 26.3825C54.1181 26.4642 54.5089 26.5108 54.9055 26.5225C55.3022 26.5225 55.693 26.4758 56.0777 26.3825C56.4629 26.3009 56.8301 26.1784 57.1802 26.0151C57.5419 25.8635 57.8855 25.6711 58.2121 25.4378C58.5272 25.2045 58.8133 24.9421 59.0697 24.6505C59.3613 24.3239 59.6238 23.9741 59.8572 23.6008C60.0786 23.2276 60.2655 22.8369 60.4167 22.4287C60.5685 22.0204 60.6852 21.6005 60.7669 21.169C60.837 20.7375 60.8721 20.3059 60.8721 19.8744C60.8721 19.4429 60.837 19.0113 60.7669 18.5797C60.6852 18.1482 60.5685 17.7283 60.4167 17.3201C60.2655 16.9119 60.0786 16.5212 59.8572 16.1479C59.6238 15.7747 59.3613 15.4248 59.0697 15.0982C58.8133 14.8066 58.5217 14.5501 58.1951 14.3284C57.88 14.0952 57.5419 13.8969 57.1802 13.7336C56.8301 13.5704 56.4629 13.4479 56.0777 13.3662C55.6809 13.2846 55.2902 13.2438 54.9055 13.2438ZM84.9474 19.0171C84.8948 18.2824 84.72 17.565 84.4049 16.9177C84.0728 16.2529 83.6355 15.6581 83.093 15.1682C82.5504 14.6784 81.9208 14.2935 81.2204 14.031C80.5382 13.7861 79.8033 13.6636 79.086 13.6986C78.2985 13.7161 77.5116 13.8736 76.7942 14.1885C76.0764 14.5034 75.4292 14.9582 74.8691 15.5181C74.3271 16.0955 73.9068 16.7603 73.6098 17.4951C73.3298 18.2299 73.1895 18.9996 73.207 19.7869C73.207 23.4784 75.7618 26.1026 80.1184 26.1026H88.4118C87.9044 26.8724 87.3268 27.5897 86.6445 28.202C85.9623 28.8318 85.2099 29.3742 84.4049 29.7941C83.6004 30.2315 82.7428 30.5639 81.8506 30.7913C80.958 31.0187 80.0483 31.1237 79.1211 31.1062C74.5721 31.1062 70.4774 28.377 68.7277 24.1782C66.996 19.9793 67.9583 15.1507 71.1772 11.9316C74.3792 8.73003 79.2263 7.76778 83.425 9.49984C87.6244 11.2318 90.3715 15.3432 90.3715 19.8744C90.3715 20.1776 90.354 20.4751 90.3189 20.7666C90.2959 21.0582 90.2608 21.3498 90.2142 21.6414C90.1671 21.9447 90.115 22.2362 90.0564 22.5162C89.9868 22.8077 89.9106 23.0935 89.829 23.3734H77.3011V22.1488L81.7104 22.0088C83.95 21.9213 84.9474 20.7841 84.9474 19.0171ZM101.884 31.0187C101.243 31.0187 100.613 30.9546 99.9949 30.8263C99.3647 30.6864 98.7581 30.4881 98.175 30.2315C97.5919 29.9748 97.0434 29.6599 96.5305 29.2867C96.0055 28.9018 95.5271 28.4761 95.0958 28.0096C94.8624 27.753 94.641 27.4906 94.4305 27.2223C94.2327 26.9424 94.0398 26.6567 93.8535 26.365C93.6666 26.0618 93.5033 25.7586 93.3636 25.4553C93.2118 25.1404 93.072 24.8197 92.9433 24.4931C92.815 24.1315 92.6989 23.7583 92.5936 23.3734C92.4884 23.0002 92.4013 22.6153 92.3311 22.2187C92.261 21.8338 92.2144 21.4489 92.1914 21.0641C92.1563 20.6675 92.1388 20.271 92.1388 19.8744C92.1388 19.4895 92.1563 19.0988 92.1914 18.7022C92.2144 18.3056 92.261 17.915 92.3311 17.53C92.4013 17.1452 92.4884 16.7603 92.5936 16.3754C92.6989 16.0021 92.815 15.6289 92.9433 15.2557C93.072 14.9291 93.2118 14.6142 93.3636 14.311C93.5033 13.9961 93.6666 13.6928 93.8535 13.4012C94.0398 13.1096 94.2327 12.8239 94.4305 12.5439C94.641 12.2641 94.8624 12.0016 95.0958 11.7567C95.5271 11.2785 96.0055 10.8528 96.5305 10.4796C97.0434 10.1063 97.5919 9.7914 98.175 9.53479C98.7581 9.26657 99.3647 9.06827 99.9949 8.94C100.613 8.81167 101.243 8.7417 101.884 8.73003C102.654 8.73003 103.407 8.85249 104.124 9.06247C104.859 9.28986 105.541 9.60477 106.171 10.0247C106.801 10.4445 107.378 10.9519 107.868 11.5293C108.341 12.1241 108.743 12.7714 109.041 13.4712C109.076 13.5412 109.128 13.5762 109.163 13.5762C109.233 13.5762 109.268 13.5237 109.268 13.4187V0.192445H114.727V30.4239H109.268V26.3301C109.268 26.2426 109.233 26.1726 109.163 26.1726C109.128 26.1726 109.076 26.2251 109.041 26.2951C108.743 26.9948 108.341 27.6422 107.868 28.2195C107.378 28.8144 106.801 29.3217 106.171 29.7416C105.541 30.144 104.859 30.4764 104.124 30.6864C103.407 30.9138 102.654 31.0187 101.884 31.0187ZM103.389 13.2438C102.992 13.2438 102.602 13.2846 102.217 13.3662C101.832 13.4479 101.459 13.5704 101.097 13.7336C100.735 13.8969 100.397 14.0952 100.082 14.3284C99.7675 14.5617 99.4754 14.8242 99.2075 15.1157C98.9159 15.4423 98.6589 15.7922 98.4375 16.1654C98.2041 16.527 98.0117 16.9119 97.8599 17.3201C97.7087 17.7283 97.5974 18.1482 97.5278 18.5797C97.4462 19.0113 97.4111 19.4429 97.4226 19.8744C97.4111 20.3176 97.4462 20.755 97.5278 21.1865C97.5974 21.6064 97.7087 22.0204 97.8599 22.4287C98.0117 22.8369 98.2041 23.2276 98.4375 23.6008C98.6589 23.9741 98.9159 24.3239 99.2075 24.6505C99.4754 24.9421 99.7675 25.2045 100.082 25.4378C100.397 25.6711 100.735 25.8694 101.097 26.0327C101.459 26.1959 101.832 26.3184 102.217 26.4001C102.602 26.4817 102.992 26.5225 103.389 26.5225C103.786 26.5225 104.171 26.4758 104.544 26.3825C104.929 26.3009 105.302 26.1784 105.663 26.0151C106.025 25.8518 106.364 25.6594 106.678 25.4378C106.993 25.2045 107.285 24.9421 107.553 24.6505C107.845 24.3239 108.101 23.9741 108.323 23.6008C108.556 23.2393 108.749 22.8544 108.9 22.4461C109.052 22.0379 109.169 21.6181 109.251 21.1865C109.321 20.755 109.355 20.3176 109.355 19.8744C109.355 19.4429 109.321 19.0113 109.251 18.5797C109.169 18.1482 109.052 17.7283 108.9 17.3201C108.749 16.9119 108.556 16.5212 108.323 16.1479C108.101 15.7864 107.845 15.4423 107.553 15.1157C107.285 14.8242 106.993 14.5617 106.678 14.3284C106.364 14.0952 106.025 13.9027 105.663 13.7511C105.302 13.5878 104.935 13.4654 104.561 13.3837C104.177 13.2904 103.786 13.2438 103.389 13.2438ZM118.646 9.32488H124.105V30.4239H118.646V9.32488ZM121.376 6.36822C120.956 6.36822 120.554 6.28071 120.168 6.12329C119.784 5.96581 119.434 5.72088 119.136 5.42347C118.839 5.12605 118.594 4.77615 118.436 4.40876C118.279 4.02386 118.191 3.60398 118.191 3.1841C118.191 2.76422 118.279 2.36183 118.436 1.97694C118.612 1.59205 118.839 1.24215 119.136 0.944734C119.434 0.647315 119.784 0.419882 120.168 0.262426C120.554 0.0874751 120.956 0.0174951 121.376 0C121.796 0.0174951 122.198 0.0874751 122.583 0.262426C122.968 0.419882 123.318 0.647315 123.615 0.944734C123.913 1.24215 124.14 1.59205 124.315 1.97694C124.473 2.36183 124.56 2.76422 124.56 3.1841C124.56 3.60398 124.473 4.02386 124.315 4.40876C124.14 4.77615 123.913 5.12605 123.615 5.42347C123.318 5.72088 122.968 5.96581 122.583 6.12329C122.198 6.28071 121.796 6.36822 121.376 6.36822ZM136.58 31.0187C135.939 31.0187 135.309 30.9546 134.691 30.8263C134.061 30.6864 133.455 30.4881 132.871 30.2315C132.288 29.9748 131.74 29.6599 131.227 29.2867C130.702 28.9018 130.223 28.4761 129.792 28.0096C129.558 27.753 129.337 27.4906 129.127 27.2223C128.917 26.9424 128.724 26.6567 128.55 26.365C128.363 26.0618 128.194 25.7586 128.042 25.4553C127.89 25.1404 127.757 24.8197 127.64 24.4931C127.5 24.1315 127.383 23.7583 127.29 23.3734C127.185 23.0002 127.097 22.6153 127.027 22.2187C126.957 21.8338 126.91 21.4489 126.887 21.0641C126.852 20.6675 126.835 20.271 126.835 19.8744C126.835 19.4895 126.852 19.0988 126.887 18.7022C126.91 18.3056 126.957 17.915 127.027 17.53C127.097 17.1452 127.185 16.7603 127.29 16.3754C127.383 16.0021 127.5 15.6289 127.64 15.2557C127.757 14.9291 127.89 14.6142 128.042 14.311C128.194 13.9961 128.363 13.6928 128.55 13.4012C128.724 13.1096 128.917 12.8239 129.127 12.5439C129.337 12.2641 129.558 12.0016 129.792 11.7567C130.223 11.2785 130.702 10.8528 131.227 10.4796C131.74 10.1063 132.288 9.7914 132.871 9.53479C133.455 9.26657 134.061 9.06827 134.691 8.94C135.309 8.81167 135.939 8.7417 136.58 8.73003C137.333 8.73003 138.103 8.85249 138.82 9.06247C139.555 9.28986 140.237 9.60477 140.868 10.0247C141.497 10.4445 142.075 10.9519 142.547 11.5293C143.037 12.1241 143.439 12.7714 143.737 13.4712C143.772 13.5412 143.807 13.5762 143.859 13.5762C143.912 13.5762 143.964 13.5237 143.964 13.4187V9.32488H149.423V30.4239H143.964V26.3301C143.964 26.2426 143.912 26.1726 143.859 26.1726C143.807 26.1726 143.772 26.2251 143.737 26.2951C143.439 26.9948 143.037 27.6422 142.547 28.2195C142.075 28.8144 141.497 29.3217 140.868 29.7416C140.237 30.144 139.555 30.4764 138.82 30.6864C138.103 30.9138 137.333 31.0187 136.58 31.0187ZM138.085 13.2438C137.689 13.2438 137.298 13.2846 136.913 13.3662C136.528 13.4479 136.155 13.5704 135.793 13.7336C135.431 13.8969 135.093 14.0952 134.778 14.3284C134.464 14.5501 134.172 14.8066 133.904 15.0982C133.612 15.4248 133.356 15.7747 133.134 16.1479C132.901 16.5212 132.708 16.9119 132.557 17.3201C132.405 17.7283 132.294 18.1482 132.224 18.5797C132.142 19.0113 132.107 19.4429 132.119 19.8744C132.107 20.3176 132.142 20.7491 132.224 21.169C132.294 21.6005 132.405 22.0204 132.557 22.4287C132.708 22.8369 132.901 23.2276 133.134 23.6008C133.356 23.9741 133.612 24.3239 133.904 24.6505C134.172 24.9421 134.464 25.2045 134.778 25.4378C135.093 25.6711 135.431 25.8694 135.793 26.0327C136.155 26.1843 136.528 26.3067 136.913 26.4001C137.298 26.4817 137.689 26.5225 138.085 26.5225C138.482 26.5108 138.867 26.4642 139.24 26.3825C139.625 26.3009 139.998 26.1784 140.36 26.0151C140.722 25.8518 141.06 25.6536 141.375 25.4203C141.69 25.1987 141.981 24.9421 142.25 24.6505C142.541 24.3239 142.798 23.9741 143.02 23.6008C143.253 23.2276 143.445 22.8369 143.597 22.4287C143.748 22.0204 143.865 21.6005 143.947 21.169C144.017 20.7491 144.052 20.3176 144.052 19.8744C144.052 19.4429 144.017 19.0113 143.947 18.5797C143.865 18.1482 143.748 17.7283 143.597 17.3201C143.445 16.9119 143.253 16.5212 143.02 16.1479C142.798 15.7747 142.541 15.4306 142.25 15.1157C141.981 14.8242 141.69 14.5617 141.375 14.3284C141.06 14.0952 140.722 13.9027 140.36 13.7511C139.998 13.5878 139.625 13.4654 139.24 13.3837C138.867 13.2904 138.482 13.2438 138.085 13.2438ZM170.997 39.6088C170.542 39.6205 170.081 39.603 169.615 39.5563C169.148 39.5213 168.687 39.463 168.232 39.3814C167.778 39.2997 167.328 39.1947 166.885 39.0665C166.43 38.9498 165.987 38.8099 165.555 38.6466C165.147 38.495 164.75 38.32 164.366 38.1217C163.981 37.9351 163.601 37.731 163.228 37.5094C162.855 37.2761 162.499 37.0312 162.161 36.7746C161.811 36.5064 161.478 36.2264 161.164 35.9348L164.435 32.3833C166.553 34.0629 168.285 35.0251 170.909 35.0251C171.318 35.0484 171.726 35.0251 172.134 34.9551C172.53 34.8852 172.922 34.7744 173.306 34.6227C173.68 34.4595 174.035 34.2553 174.374 34.0104C174.701 33.7655 174.998 33.4855 175.266 33.1706C175.499 32.8557 175.703 32.5175 175.878 32.1559C176.053 31.806 176.199 31.4386 176.316 31.0537C176.433 30.6688 176.514 30.2839 176.561 29.8991C176.608 29.5025 176.619 29.106 176.596 28.7094V26.1551C176.596 26.0676 176.561 25.9976 176.508 25.9976C176.456 25.9976 176.421 26.0327 176.368 26.1201C176.089 26.8024 175.703 27.4498 175.213 28.0271C174.741 28.6219 174.181 29.1293 173.569 29.5317C172.939 29.9516 172.256 30.2839 171.539 30.5114C170.822 30.7213 170.069 30.8438 169.317 30.8438C168.687 30.8438 168.063 30.7738 167.445 30.6339C166.827 30.5055 166.226 30.3131 165.643 30.0565C165.06 29.7999 164.512 29.485 163.998 29.1118C163.485 28.7385 163.018 28.3187 162.598 27.8521C162.365 27.6072 162.144 27.3448 161.933 27.0649C161.723 26.7966 161.531 26.5167 161.356 26.2251C161.181 25.9335 161.018 25.6302 160.866 25.3153C160.714 25.0121 160.58 24.6972 160.463 24.3706C160.324 24.009 160.207 23.6416 160.114 23.2684C160.009 22.8836 159.921 22.4986 159.851 22.1138C159.793 21.7289 159.746 21.3439 159.712 20.9591C159.677 20.5742 159.659 20.1835 159.659 19.7869C159.659 19.402 159.677 19.0113 159.712 18.6147C159.746 18.2299 159.793 17.845 159.851 17.4601C159.921 17.0752 160.009 16.6961 160.114 16.3229C160.207 15.938 160.324 15.5648 160.463 15.2032C160.58 14.8767 160.714 14.5617 160.866 14.2585C161.018 13.9552 161.181 13.652 161.356 13.3487C161.531 13.0572 161.723 12.7772 161.933 12.509C162.144 12.2407 162.365 11.9783 162.598 11.7217C163.018 11.2552 163.485 10.8353 163.998 10.462C164.512 10.0888 165.06 9.77392 165.643 9.51731C166.226 9.26071 166.827 9.06827 167.445 8.94C168.063 8.81167 168.687 8.7417 169.317 8.73003C170.069 8.74751 170.822 8.85249 171.539 9.07995C172.256 9.28986 172.939 9.6223 173.551 10.0421C174.181 10.462 174.741 10.9694 175.213 11.5467C175.703 12.1241 176.089 12.7714 176.368 13.4712C176.403 13.5412 176.456 13.5762 176.508 13.5762C176.561 13.5762 176.596 13.5237 176.596 13.4187V9.32488H182.072V29.1992C182.084 29.8874 182.032 30.5639 181.915 31.2287C181.798 31.9051 181.611 32.5641 181.355 33.2056C181.11 33.8355 180.801 34.4361 180.428 35.0076C180.066 35.5908 179.646 36.1273 179.168 36.6172C177.173 38.5766 174.356 39.6088 170.997 39.6088ZM170.822 13.2438C170.437 13.2438 170.052 13.2846 169.667 13.3662C169.294 13.4479 168.926 13.5704 168.565 13.7336C168.215 13.8853 167.882 14.0777 167.567 14.311C167.253 14.5325 166.967 14.7892 166.71 15.0807C166.419 15.3957 166.162 15.7397 165.94 16.1129C165.719 16.4862 165.532 16.8711 165.38 17.2676C165.229 17.6758 165.118 18.0899 165.048 18.5098C164.978 18.9296 164.943 19.3553 164.943 19.7869C164.943 20.2185 164.978 20.6442 165.048 21.0641C165.118 21.4956 165.229 21.9096 165.38 22.3062C165.532 22.7144 165.719 23.0993 165.94 23.4609C166.162 23.8341 166.419 24.1782 166.71 24.4931C166.967 24.7847 167.253 25.0413 167.567 25.2628C167.882 25.4961 168.215 25.6944 168.565 25.8577C168.926 26.0093 169.294 26.126 169.667 26.2076C170.052 26.2893 170.437 26.3301 170.822 26.3301C171.207 26.3301 171.586 26.2893 171.959 26.2076C172.344 26.126 172.711 26.0035 173.061 25.8402C173.412 25.6769 173.744 25.4845 174.059 25.2628C174.374 25.0413 174.659 24.7847 174.916 24.4931C175.208 24.1782 175.464 23.8341 175.686 23.4609C175.908 23.0993 176.094 22.7144 176.246 22.3062C176.409 21.9096 176.526 21.4956 176.596 21.0641C176.666 20.6442 176.701 20.2185 176.701 19.7869C176.701 19.3553 176.666 18.9296 176.596 18.5098C176.514 18.0782 176.398 17.6642 176.246 17.2676C176.094 16.8594 175.908 16.4745 175.686 16.1129C175.464 15.7397 175.208 15.3957 174.916 15.0807C174.659 14.8008 174.374 14.5442 174.059 14.311C173.744 14.0894 173.412 13.8969 173.061 13.7336C172.711 13.582 172.344 13.4595 171.959 13.3662C171.586 13.2846 171.207 13.2438 170.822 13.2438ZM191.451 9.32488V13.9261C191.451 14.0135 191.538 14.066 191.59 13.9261C192.308 10.1471 193.953 8.73003 196.77 8.73003H197.277V14.4684H194.81C192.588 14.4684 191.451 16.2004 191.451 18.6498V30.4239H185.974V9.32488H191.451ZM208.895 31.1062C205.903 31.1412 203.016 29.969 200.881 27.8521C198.747 25.7527 197.557 22.866 197.557 19.8744C197.557 16.8827 198.747 14.0135 200.881 11.8967C203.016 9.7972 205.903 8.62504 208.895 8.64258C209.63 8.64258 210.359 8.71836 211.082 8.86997C211.805 9.00997 212.505 9.21989 213.182 9.49984C213.858 9.77973 214.5 10.1296 215.106 10.5495C215.724 10.9578 216.29 11.4243 216.803 11.9492C217.853 12.9813 218.676 14.2235 219.235 15.5881C219.813 16.9527 220.093 18.4048 220.093 19.8744C220.093 21.3615 219.813 22.8135 219.235 24.1782C218.676 25.5428 217.853 26.7675 216.803 27.8172C216.29 28.342 215.724 28.8085 215.106 29.2168C214.5 29.625 213.858 29.969 213.182 30.2489C212.505 30.5405 211.805 30.7563 211.082 30.8963C210.359 31.0362 209.63 31.1062 208.895 31.1062ZM208.86 13.6112C208.463 13.6112 208.073 13.6461 207.687 13.7161C207.303 13.7978 206.929 13.9144 206.568 14.066C206.195 14.2293 205.85 14.4218 205.535 14.6433C205.209 14.865 204.911 15.1215 204.643 15.4132C204.363 15.7047 204.112 16.0255 203.891 16.3754C203.669 16.7253 203.483 17.0927 203.331 17.4776C203.179 17.8625 203.068 18.2532 202.999 18.6498C202.917 19.058 202.882 19.4662 202.893 19.8744C202.882 20.2942 202.917 20.7025 202.999 21.099C203.068 21.5072 203.179 21.9038 203.331 22.2887C203.483 22.6736 203.669 23.0352 203.891 23.3734C204.112 23.7233 204.363 24.0499 204.643 24.3531C205.186 24.913 205.833 25.3678 206.568 25.6827C207.285 25.9976 208.055 26.1551 208.86 26.1551C209.647 26.1551 210.417 25.9976 211.152 25.6827C211.869 25.3678 212.517 24.913 213.059 24.3531C213.339 24.0499 213.59 23.7233 213.811 23.3734C214.033 23.0352 214.219 22.6736 214.371 22.2887C214.523 21.9038 214.634 21.5072 214.704 21.099C214.786 20.7025 214.821 20.2942 214.809 19.8744C214.821 19.4662 214.786 19.058 214.704 18.6498C214.634 18.2532 214.523 17.8625 214.371 17.4776C214.219 17.0927 214.033 16.7253 213.811 16.3754C213.59 16.0255 213.339 15.7047 213.059 15.4132C212.791 15.1215 212.493 14.865 212.167 14.6433C211.852 14.4218 211.513 14.2293 211.152 14.066C210.79 13.9144 210.411 13.7978 210.015 13.7161C209.63 13.6461 209.245 13.6112 208.86 13.6112ZM231.431 31.1062C226.112 31.1062 222.7 27.8871 222.7 23.146V9.32488H228.159V22.7436C228.124 23.1985 228.194 23.6533 228.351 24.0907C228.509 24.5281 228.754 24.913 229.086 25.2454C229.401 25.5603 229.786 25.8227 230.223 25.9802C230.644 26.1551 231.116 26.2251 231.571 26.1901C232.008 26.2076 232.463 26.1201 232.866 25.9452C233.268 25.7702 233.635 25.5253 233.95 25.1929C234.265 24.878 234.493 24.5106 234.65 24.0907C234.808 23.6708 234.877 23.2334 234.842 22.7786V9.32488H240.319V23.146C240.319 27.8871 236.627 31.1062 231.431 31.1062ZM249.557 39.119H244.099V9.32488H249.557V13.4187C249.557 13.5237 249.592 13.5762 249.645 13.5762C249.698 13.5762 249.75 13.5412 249.785 13.4712C250.082 12.7714 250.468 12.1241 250.957 11.5293C251.447 10.9519 252.007 10.4445 252.637 10.0247C253.284 9.60477 253.966 9.28986 254.701 9.06247C255.419 8.85249 256.171 8.73003 256.924 8.73003C257.565 8.7417 258.201 8.81167 258.831 8.94C259.449 9.06827 260.055 9.26657 260.65 9.53479C261.234 9.7914 261.782 10.1063 262.295 10.4796C262.808 10.8528 263.281 11.2785 263.712 11.7567C263.946 12.0016 264.168 12.2641 264.377 12.5439C264.587 12.8239 264.786 13.1096 264.972 13.4012C265.147 13.6928 265.311 13.9961 265.462 14.311C265.614 14.6142 265.748 14.9291 265.865 15.2557C266.004 15.6289 266.127 16.0021 266.232 16.3754C266.337 16.7603 266.419 17.1452 266.477 17.53C266.547 17.915 266.6 18.3056 266.635 18.7022C266.669 19.0988 266.681 19.4895 266.669 19.8744C266.669 20.271 266.658 20.6675 266.635 21.0641C266.6 21.4489 266.547 21.8338 266.477 22.2187C266.407 22.6153 266.325 23.0002 266.232 23.3734C266.127 23.7583 266.004 24.1315 265.865 24.4931C265.748 24.8197 265.614 25.1404 265.462 25.4553C265.311 25.7586 265.147 26.0618 264.972 26.365C264.786 26.6567 264.587 26.9424 264.377 27.2223C264.168 27.4906 263.946 27.753 263.712 28.0096C263.281 28.4761 262.808 28.9018 262.295 29.2867C261.782 29.6599 261.234 29.9748 260.65 30.2315C260.055 30.4881 259.449 30.6864 258.831 30.8263C258.201 30.9546 257.565 31.0187 256.924 31.0187C256.171 31.0187 255.419 30.9138 254.701 30.6864C253.966 30.4764 253.284 30.144 252.637 29.7416C252.007 29.3217 251.447 28.8144 250.957 28.2195C250.468 27.6422 250.082 26.9948 249.785 26.2951C249.75 26.2251 249.698 26.1726 249.645 26.1726C249.592 26.1726 249.557 26.2426 249.557 26.3301V39.119ZM255.436 13.2438C255.04 13.2438 254.649 13.2846 254.264 13.3662C253.879 13.4595 253.512 13.582 253.162 13.7336C252.8 13.8969 252.462 14.0952 252.147 14.3284C251.832 14.5617 251.54 14.8183 251.272 15.0982C250.98 15.4248 250.718 15.7747 250.485 16.1479C250.263 16.5212 250.071 16.9119 249.907 17.3201C249.756 17.7283 249.645 18.1482 249.575 18.5797C249.493 19.0113 249.458 19.4429 249.47 19.8744C249.458 20.3059 249.493 20.7375 249.575 21.169C249.645 21.6005 249.756 22.0204 249.907 22.4287C250.071 22.8369 250.263 23.2276 250.485 23.6008C250.718 23.9741 250.98 24.3239 251.272 24.6505C251.529 24.9421 251.821 25.1987 252.147 25.4203C252.462 25.6536 252.8 25.8518 253.162 26.0151C253.512 26.1784 253.879 26.3009 254.264 26.3825C254.649 26.4642 255.04 26.5108 255.436 26.5225C255.821 26.5225 256.206 26.4758 256.591 26.3825C256.976 26.3009 257.349 26.1784 257.711 26.0151C258.073 25.8635 258.411 25.6711 258.726 25.4378C259.052 25.2045 259.344 24.9421 259.6 24.6505C259.892 24.3239 260.155 23.9741 260.388 23.6008C260.609 23.2276 260.796 22.8369 260.948 22.4287C261.099 22.0204 261.216 21.6005 261.298 21.169C261.368 20.7375 261.397 20.3059 261.385 19.8744C261.397 19.4429 261.368 19.0113 261.298 18.5797C261.216 18.1482 261.099 17.7283 260.948 17.3201C260.796 16.9119 260.609 16.5212 260.388 16.1479C260.155 15.7747 259.892 15.4248 259.6 15.0982C259.344 14.8066 259.052 14.5501 258.726 14.3284C258.411 14.0952 258.073 13.8969 257.711 13.7336C257.349 13.5704 256.976 13.4479 256.591 13.3662C256.206 13.2846 255.821 13.2438 255.436 13.2438ZM270.536 9.39485V9.95468H269.591V12.5615H268.926V9.95468H267.982V9.39485H270.536ZM273.02 9.39485H273.966V12.5615H273.353C273.353 12.4915 273.353 10.2696 273.353 10.1646C273.353 10.0597 273.353 9.97217 273.353 9.90219L272.758 12.5615H272.111L271.516 9.90219C271.516 9.97217 271.516 10.0597 271.516 10.1646C271.516 10.2813 271.516 10.3687 271.516 10.4271V12.5615H270.904V9.39485H271.866L272.443 11.8791L273.02 9.39485Z" fill="#77718E" fill-opacity="0.2"/>
</g>
</g>
<defs>
<clipPath id="clip0_8026_386">
<rect width="274" height="40" fill="white"/>
</clipPath>
</defs>
</svg>
