<svg width="20" height="20" viewBox="0 0 20 20" fill="none" xmlns="http://www.w3.org/2000/svg">
<path fill-rule="evenodd" clip-rule="evenodd" d="M4.84731 0H12L18 6V17.3963C18 18.8356 16.7544 20 15.2202 20H4.78516C3.24557 20 2 18.8356 2 17.3963V2.60367C1.99997 1.16439 3.30769 0 4.84731 0Z" fill="#D92D20"/>
<path d="M12.0128 4.08V0L18 6H14.0085C12.2124 6 11.9297 4.72 12.0128 4.08Z" fill="white" fill-opacity="0.3"/>
<path d="M5.87453 16V12.7273H7.16573C7.41395 12.7273 7.62542 12.7747 7.80014 12.8695C7.97485 12.9632 8.10802 13.0937 8.19964 13.261C8.29233 13.4272 8.33867 13.619 8.33867 13.8363C8.33867 14.0536 8.29179 14.2454 8.19804 14.4116C8.10429 14.5778 7.96846 14.7072 7.79055 14.7999C7.6137 14.8926 7.39957 14.9389 7.14815 14.9389H6.32517V14.3844H7.03629C7.16946 14.3844 7.27919 14.3615 7.36548 14.3157C7.45284 14.2688 7.51782 14.2044 7.56044 14.1223C7.60411 14.0392 7.62595 13.9439 7.62595 13.8363C7.62595 13.7276 7.60411 13.6328 7.56044 13.5518C7.51782 13.4698 7.45284 13.4064 7.36548 13.3617C7.27812 13.3159 7.16733 13.293 7.03309 13.293H6.56647V16H5.87453ZM9.94826 16H8.78811V12.7273H9.95785C10.287 12.7273 10.5704 12.7928 10.808 12.9238C11.0456 13.0538 11.2283 13.2408 11.3561 13.4847C11.485 13.7287 11.5495 14.0206 11.5495 14.3604C11.5495 14.7013 11.485 14.9943 11.3561 15.2393C11.2283 15.4844 11.0445 15.6724 10.8048 15.8034C10.5662 15.9345 10.2807 16 9.94826 16ZM9.48005 15.4071H9.9195C10.124 15.4071 10.2961 15.3709 10.4357 15.2985C10.5763 15.225 10.6818 15.1115 10.7521 14.9581C10.8234 14.8036 10.8591 14.6044 10.8591 14.3604C10.8591 14.1186 10.8234 13.921 10.7521 13.7676C10.6818 13.6142 10.5768 13.5012 10.4373 13.4288C10.2977 13.3564 10.1256 13.3201 9.9211 13.3201H9.48005V15.4071ZM12.062 16V12.7273H14.2289V13.2978H12.754V14.0776H14.0851V14.6481H12.754V16H12.062Z" fill="white"/>
</svg>
