<svg width="32" height="32" viewBox="0 0 32 32" fill="none" xmlns="http://www.w3.org/2000/svg">
<path d="M28.8027 29.8638C29.0956 30.1567 29.5704 30.1567 29.8633 29.8638C30.1562 29.5709 30.1562 29.0961 29.8633 28.8032L29.333 29.3335L28.8027 29.8638ZM26.933 26.9335L26.4027 27.4638L28.8027 29.8638L29.333 29.3335L29.8633 28.8032L27.4633 26.4032L26.933 26.9335ZM28.133 22.7335H28.883C28.883 19.3369 26.1296 16.5835 22.733 16.5835V17.3335V18.0835C25.3011 18.0835 27.383 20.1654 27.383 22.7335H28.133ZM22.733 17.3335V16.5835C19.3365 16.5835 16.583 19.3369 16.583 22.7335H17.333H18.083C18.083 20.1654 20.1649 18.0835 22.733 18.0835V17.3335ZM17.333 22.7335H16.583C16.583 26.13 19.3365 28.8835 22.733 28.8835V28.1335V27.3835C20.1649 27.3835 18.083 25.3016 18.083 22.7335H17.333ZM22.733 28.1335V28.8835C26.1296 28.8835 28.883 26.13 28.883 22.7335H28.133H27.383C27.383 25.3016 25.3011 27.3835 22.733 27.3835V28.1335Z" fill="#FEFFFF"/>
<path d="M29.3337 16.0002C29.3337 8.63637 23.3641 2.66683 16.0003 2.66683C8.63653 2.66683 2.66699 8.63637 2.66699 16.0002C2.66699 23.364 8.63653 29.3335 16.0003 29.3335" stroke="#FEFFFF" stroke-width="1.5" stroke-linecap="round"/>
<path d="M26.6663 7.59849C25.42 7.68831 23.8237 8.17082 22.7169 9.60354C20.7176 12.1913 18.7184 12.4072 17.3855 11.5447C15.3863 10.2508 17.0663 8.15499 14.7199 7.01604C13.1905 6.27373 12.9773 4.25378 13.8285 2.6665" stroke="#FEFFFF" stroke-width="1.5" stroke-linejoin="round"/>
<path d="M2.66699 14.6665C3.68365 15.5493 5.1076 16.3574 6.78531 16.3574C10.2516 16.3574 10.9448 17.0197 10.9448 19.6689C10.9448 22.3181 10.9448 22.3181 11.6381 24.305C12.089 25.5973 12.2466 26.8897 11.3478 27.9998" stroke="#FEFFFF" stroke-width="1.5" stroke-linejoin="round"/>
</svg>
