<svg width="18" height="18" viewBox="0 0 18 18" fill="none" xmlns="http://www.w3.org/2000/svg">
<g clip-path="url(#clip0_8235_1955)">
<path d="M9 7.36328V10.8487H13.8436C13.6309 11.9696 12.9927 12.9188 12.0354 13.5569L14.9563 15.8233C16.6581 14.2525 17.64 11.9452 17.64 9.20428C17.64 8.56611 17.5827 7.95242 17.4763 7.36338L9 7.36328Z" fill="white"/>
<path d="M3.95645 10.7129L3.29768 11.2172L0.96582 13.0335C2.44673 15.9708 5.48196 17.9999 9.00011 17.9999C11.43 17.9999 13.4673 17.1981 14.9564 15.8235L12.0355 13.5572C11.2337 14.0972 10.211 14.4245 9.00011 14.4245C6.66012 14.4245 4.672 12.8454 3.96013 10.7181L3.95645 10.7129Z" fill="white"/>
<path d="M0.965384 4.9668C0.351781 6.17766 0 7.54404 0 9.00038C0 10.4567 0.351781 11.8231 0.965384 13.034C0.965384 13.0421 3.95998 10.7103 3.95998 10.7103C3.77998 10.1703 3.67359 9.59764 3.67359 9.00028C3.67359 8.40293 3.77998 7.83024 3.95998 7.29025L0.965384 4.9668Z" fill="white"/>
<path d="M9.00029 3.58363C10.3258 3.58363 11.5039 4.0418 12.4448 4.92545L15.0221 2.34821C13.4594 0.891874 11.4303 0 9.00029 0C5.48214 0 2.44673 2.02091 0.96582 4.96637L3.96033 7.29001C4.6721 5.16271 6.66031 3.58363 9.00029 3.58363Z" fill="white"/>
</g>
<defs>
<clipPath id="clip0_8235_1955">
<rect width="18" height="18" fill="white"/>
</clipPath>
</defs>
</svg>
