<svg width="20" height="20" viewBox="0 0 20 20" fill="none" xmlns="http://www.w3.org/2000/svg">
<g clip-path="url(#clip0_8235_8)">
<path d="M10 8.18164V12.0544H15.3818C15.1455 13.2998 14.4363 14.3544 13.3727 15.0635L16.6181 17.5817C18.509 15.8363 19.5999 13.2726 19.5999 10.2272C19.5999 9.51812 19.5363 8.83623 19.4181 8.18175L10 8.18164Z" fill="#9E9E9E"/>
<path d="M4.39519 11.9033L3.66322 12.4636L1.07227 14.4818C2.71772 17.7454 6.09019 20 9.99925 20C12.6992 20 14.9628 19.1091 16.6174 17.5818L13.3719 15.0636C12.481 15.6636 11.3447 16.0273 9.99925 16.0273C7.39927 16.0273 5.19024 14.2728 4.39927 11.9091L4.39519 11.9033Z" fill="#9E9E9E"/>
<path d="M1.07265 5.51855C0.390868 6.86395 0 8.38216 0 10.0003C0 11.6185 0.390868 13.1367 1.07265 14.4821C1.07265 14.4911 4.39998 11.9003 4.39998 11.9003C4.19998 11.3003 4.08177 10.6639 4.08177 10.0002C4.08177 9.33648 4.19998 8.70016 4.39998 8.10016L1.07265 5.51855Z" fill="#9E9E9E"/>
<path d="M9.99946 3.98182C11.4722 3.98182 12.7813 4.49089 13.8267 5.47272L16.6903 2.60912C14.954 0.990971 12.6995 0 9.99946 0C6.0904 0 2.71772 2.24545 1.07227 5.51819L4.39949 8.10001C5.19035 5.73635 7.39947 3.98182 9.99946 3.98182Z" fill="#9E9E9E"/>
</g>
<defs>
<clipPath id="clip0_8235_8">
<rect width="20" height="20" fill="white"/>
</clipPath>
</defs>
</svg>
