<svg width="55" height="32" viewBox="0 0 55 32" fill="none" xmlns="http://www.w3.org/2000/svg">
<g clip-path="url(#clip0_8313_1154)">
<path d="M4.96134 17.1377H6.02448V19.1288H2.26804V17.1377H3.33119V15.9288H0V17.1377H1.06314V23.111H0V24.3199H3.33119V23.111H2.26804V20.3377H6.02448V23.111H4.96134V24.3199H8.29253V23.111H7.22938V17.1377H8.29253V15.9288H4.96134M45.2191 23.0399H41.9588V20.2666H44.7938V19.0577H41.9588V17.0666H45.2899V18.2043H46.424V15.8577H39.6198V17.0666H40.7539V23.0399H39.6198V24.2488H46.424V21.4754H45.2191M16.7268 21.4754H15.5219V23.0399H12.2616V20.2666H15.0966V19.0577H12.2616V17.0666H15.5928V18.2043H16.7268V15.8577H9.92268V17.0666H11.0567V23.0399H9.92268V24.2488H16.7268M42.2423 15.5021H44.6521L44.0142 14.791H41.5335M53.0155 19.4843C52.165 19.271 51.5979 19.271 50.7474 18.9866C49.9678 18.7021 49.826 18.2754 49.826 17.9199C49.826 17.6354 50.1804 16.7821 51.3853 16.7821C52.5902 16.7821 53.3698 17.5643 53.4407 18.2754H54.5747V15.8577H53.4407V16.3554V16.4977C53.4407 16.4977 53.3698 16.4266 53.299 16.2843C52.9446 15.9288 52.2358 15.6443 51.2436 15.6443C50.0387 15.6443 48.5503 16.4266 48.5503 17.9199C48.5503 19.3421 49.6134 19.8399 50.4639 20.1243C51.3144 20.3377 51.8106 20.3377 52.5193 20.551C53.2281 20.7643 53.7242 21.191 53.7242 21.831C53.7242 22.471 53.3698 23.2532 51.8106 23.2532C50.2513 23.2532 49.6134 22.3999 49.4717 21.191H48.3376V24.1066H49.4717V23.5377L49.4008 23.3954C49.4008 23.3954 49.4716 23.4666 49.5425 23.6088C50.1095 24.0354 50.8892 24.3199 51.8814 24.3199C52.9446 24.3199 54.8582 23.751 54.8582 21.7599C55 20.4799 54.2912 19.8399 53.0155 19.4843ZM34.6585 23.0399V24.2488H38.0606V23.0399H36.9265V17.0666H38.0606V15.8577H35.0129L33.0284 20.6932L32.9575 20.9066L32.8866 20.6932L30.9021 15.8577H27.8544V17.0666H28.9884V23.0399H27.8544V24.2488H31.2564V23.0399H30.1933V17.5643V17.2088L30.2642 17.4932L32.6031 23.0399H33.3119L35.6508 17.4932L35.7216 17.2088V17.5643V23.111M11.5528 12.4443V12.7288H12.6869C12.5451 12.6577 12.4742 12.5866 12.3325 12.4443H11.5528ZM42.2423 12.4443H41.6753C41.5335 12.4443 41.3918 12.5866 41.3918 12.7288H42.3131L42.2423 12.4443ZM11.5528 13.511H42.2423V12.9421H22.4678C21.9716 13.1554 21.3338 13.1554 20.8376 12.9421H14.884C14.317 13.2266 13.6791 13.1554 13.1121 12.9421H11.5528V13.511ZM20.1997 12.4443H15.5928C15.5928 12.4443 15.3802 12.6577 15.3093 12.7288H20.5541C20.3415 12.5866 20.2706 12.5154 20.1997 12.4443Z" fill="#1F1F1F"/>
<path d="M12.0492 10.3111C11.9783 10.5244 11.9783 10.6667 11.9783 10.88C11.9783 11.9467 12.8997 12.8711 14.0337 12.8C15.0969 12.8 15.9474 11.9467 15.9474 10.88C15.9474 10.6667 15.8765 10.4533 15.8056 10.24C16.0183 10.1689 16.2309 10.1689 16.4435 10.0978C16.5144 10.0978 16.5144 10.0267 16.4435 10.0267C16.16 9.95555 15.8056 9.88444 15.5221 9.81333C15.1677 9.31556 14.5299 8.96 13.892 8.96C13.6085 8.96 13.3958 9.03111 13.1832 9.10222C13.1123 8.96 13.1123 8.74667 13.1832 8.53333C13.3958 8.17778 13.8211 8.10667 14.1755 8.03555C14.3172 8.03555 14.6007 8.03555 14.6007 8.10667C14.6716 8.17778 14.8134 8.17778 14.9551 8.10667C15.0969 8.17778 15.0969 8.17778 15.2386 8.24889C16.5144 8.67556 17.9319 8.88889 19.2786 8.67556C19.4912 8.88889 19.6329 9.24444 19.7747 9.52889C19.8456 9.6 19.8456 9.45778 20.5543 9.45778C20.767 9.45778 21.1213 9.45778 21.334 9.45778C20.767 9.52889 20.3417 9.81333 20.0582 10.24C19.6329 10.3822 19.2786 10.5244 19.1368 10.5956C19.1368 10.5956 19.1368 10.6667 19.2786 10.6667C19.4912 10.7378 19.7038 10.7378 19.9164 10.8089C19.9164 10.88 19.9164 11.0222 19.9164 11.0933C19.9164 12.0889 20.6961 12.8711 21.6884 12.8711C22.6806 12.8711 23.4603 12.0889 23.4603 11.0933C23.4603 10.8089 23.3894 10.5244 23.2476 10.24C23.4603 10.1689 23.6729 10.0978 23.9564 9.95555C24.169 10.0267 24.3108 10.1689 24.3817 10.3111C24.5234 10.4533 24.736 10.3822 24.8778 10.3822C25.0904 10.3111 25.1613 10.0978 25.1613 9.88444C25.1613 9.81333 25.1613 9.67111 25.2322 9.6C25.5157 8.96 26.6497 8.88889 27.2167 8.74667C27.2167 8.74667 26.9332 9.10222 26.7206 9.17333C26.6497 10.0978 26.2953 10.9511 26.2953 11.8756C26.5788 11.8756 26.5788 12.2311 26.6497 12.3733C26.5788 12.5156 26.4371 12.3733 26.2953 12.4444C25.8701 12.2311 26.3662 11.8044 26.0827 11.52C26.2244 10.7378 26.5788 10.0267 26.5079 9.24444C26.3662 9.24444 26.3662 9.38667 26.2953 9.45778C26.2244 10.24 26.0118 10.9511 25.7992 11.5911C25.8701 11.6622 26.0118 11.6622 26.0118 11.8044C25.7283 11.9467 26.0118 12.2311 25.9409 12.4444H23.2476L22.9641 12.7289H27.1458L27.2167 12.5867C26.5788 11.9467 26.8623 10.9511 27.1458 10.24L27.8546 9.24444C28.4216 9.03111 28.8469 8.24889 29.4139 8.03555C29.4139 8.32 29.0595 8.46222 28.8469 8.67556C28.6342 9.17333 27.9255 9.24444 27.8546 9.81333C28.1381 10.0978 28.4925 10.3111 28.8469 10.5956C29.2012 10.8089 29.0595 11.2356 29.343 11.4489C29.4139 11.52 29.343 11.5911 29.2721 11.6622C28.9886 11.7333 28.9886 11.9467 29.2012 12.0889C29.343 12.16 29.4139 12.3022 29.4139 12.3733H27.5002C27.5002 12.4444 27.5711 12.5156 27.642 12.6578H38.2734C38.3443 12.5156 38.2025 12.3022 38.1317 12.16C37.352 11.8756 37.352 11.1644 37.352 10.3822C37.352 10.3822 37.2811 10.3111 37.352 10.0978C37.2103 10.0267 36.7141 8.74667 36.9976 7.75111L37.1394 7.39556C37.2811 7.18222 37.1394 7.04 37.2103 6.82667L39.4783 6.4C39.5492 6.4 39.4783 6.25778 39.4783 6.25778L38.7695 6.4C38.2025 6.18667 37.4229 5.68889 36.9268 4.97778C37.0685 3.84 36.9976 2.98667 36.9268 2.34667C37.2811 2.06222 37.4938 1.84889 37.4938 1.84889C37.7064 1.99111 37.7773 1.92 37.7773 1.84889C37.7064 1.77778 37.4229 1.63556 37.4938 1.49333C37.7064 1.56444 37.7773 1.49333 37.7773 1.35111L37.352 1.42222V1.35111C37.4229 1.28 37.5646 1.35111 37.7064 1.35111C37.8482 1.28 37.7064 1.13778 37.7064 1.06667C37.4229 0.711111 36.8559 0.711111 36.5015 0.497778C36.4306 0.284444 36.3597 0.213333 36.218 0.142222C36.1471 0 35.651 0 35.5092 0C35.4384 0 35.2257 0.213333 35.2257 0.213333C34.9422 0.284444 34.7296 0.142222 34.4461 0C34.4461 0 34.517 0.284444 34.8005 0.426667C34.5878 0.497778 34.4461 0.711111 34.3752 0.995555C34.0917 1.06667 34.0208 1.42222 34.0917 1.56444C33.8082 1.70667 33.8082 1.92 33.95 2.20444C33.7373 2.34667 33.7373 2.63111 33.8082 2.77333C33.5956 2.91556 33.8082 3.27111 33.8082 3.48444C34.3752 3.34222 35.1549 4.69333 36.218 4.83556C36.4306 3.91111 36.1471 3.41333 35.9345 2.98667C36.1471 2.84444 36.2889 2.70222 36.5015 2.56C36.6433 3.12889 36.7141 4.05333 36.5724 4.97778C36.5015 4.97778 36.4306 4.90667 36.3597 4.90667C36.3597 4.90667 36.5015 5.12 36.5015 5.19111C36.5015 5.19111 36.1471 5.40444 35.4384 5.12C35.2257 5.54667 32.8868 6.61333 32.8868 6.61333C32.9577 7.25333 33.3121 7.68 33.5956 8.03555C34.0917 8.39111 34.6587 8.60444 35.2966 8.74667C35.4384 9.10222 35.8636 10.24 35.9345 10.4533C36.0054 10.6667 36.0762 10.6667 36.0762 10.6667C36.1471 10.7378 36.3597 11.0933 36.3597 11.3067L36.4306 11.9467C36.4306 12.0889 36.6433 11.9467 36.6433 12.0889L36.5724 12.5156H29.4847C29.5556 12.0178 29.343 11.5911 29.4847 11.1644C29.2012 10.6667 28.4216 10.3111 28.5634 9.67111C28.9177 9.17333 30.1226 8.67556 29.8391 8.03555C30.9023 7.46667 31.4693 8.39111 32.4616 8.32C32.8159 8.32 33.1703 8.24889 33.5247 8.17778C33.0994 7.82222 32.7451 7.32444 32.5324 6.89778C30.4061 7.75111 28.4216 8.46222 26.0827 8.88889L25.9409 8.81778C25.7992 8.81778 23.2476 9.38667 22.6097 9.67111C22.468 9.6 22.2554 9.45778 22.0427 9.45778H22.1136C22.3262 9.45778 22.6806 9.31555 22.8933 9.24444C23.8855 8.88889 24.2399 7.46667 24.6652 6.61333C25.0195 7.96444 25.9409 8.10667 26.4371 7.96444L26.5079 8.39111C26.5079 8.39111 26.9332 8.39111 27.2876 8.24889C27.2876 8.17778 27.2167 7.96444 27.1458 7.68C27.3585 7.60889 27.4293 7.46667 27.5711 7.46667C27.5711 7.82222 27.642 8.10667 27.5002 8.24889L28.6342 7.96444C28.8469 6.96889 29.4847 5.54667 30.5479 4.55111C29.1304 3.98222 28.0672 4.62222 27.7837 4.90667C26.4371 5.33333 26.3662 7.18222 26.4371 7.89333C26.2244 7.96444 25.2322 8.24889 24.736 6.54222C24.9487 5.68889 25.4448 4.97778 26.0827 4.40889C26.1536 4.33778 26.0827 4.26667 25.9409 4.33778C24.8069 5.12 24.3817 6.54222 23.7438 7.75111C23.2476 8.46222 22.6097 8.88889 21.6175 8.81778C20.4126 8.81778 19.7747 7.53778 19.2077 6.68444C18.3572 4.76444 16.0891 5.47555 14.3881 5.04889C14.3172 4.97778 14.1046 4.48 13.8211 4.48C13.6085 4.48 13.8211 4.69333 13.6793 4.76444C13.4667 4.69333 13.325 4.55111 13.0414 4.55111C12.8997 4.55111 12.8288 4.76444 12.8288 4.90667C12.9706 5.54667 13.6085 5.76 14.1046 5.97333C14.3172 6.25778 14.2463 7.18222 14.0337 7.53778C13.8211 7.89333 13.0414 7.75111 12.8997 8.60444C12.8997 8.74667 12.8997 8.96 12.9706 9.03111C12.6871 9.17333 12.4036 9.45778 12.1909 9.74222C11.8366 9.81333 11.553 9.88444 11.1987 10.0267C11.1278 10.0267 11.1278 10.0978 11.1987 10.0978C11.553 10.24 11.8366 10.24 12.0492 10.3111ZM36.8559 5.54667C37.1394 5.83111 37.8482 6.32889 38.2734 6.47111L36.9976 6.68444C37.1394 6.18667 36.6433 5.97333 36.8559 5.54667ZM36.9976 1.20889C37.0685 1.20889 37.2103 1.20889 37.2103 1.28C37.2103 1.28 37.2103 1.35111 37.2103 1.42222C37.1394 1.42222 36.9976 1.42222 36.9976 1.35111C36.9268 1.28 36.9268 1.20889 36.9976 1.20889ZM36.9976 1.49333C36.9976 1.56444 37.0685 1.70667 37.1394 1.77778C37.1394 1.84889 36.9268 2.06222 36.6433 2.27556C36.5724 1.92 36.5015 1.70667 36.5015 1.63556C36.5015 1.56444 36.8559 1.49333 36.9976 1.49333ZM35.7927 0.355556C35.8636 0.355556 35.9345 0.355556 35.9345 0.355556C35.9345 0.355556 35.9345 0.426667 35.9345 0.497778L35.7927 0.568889C35.7927 0.568889 35.651 0.497778 35.651 0.426667C35.7219 0.426667 35.7219 0.355556 35.7927 0.355556ZM35.9345 2.84444C35.7927 2.56 35.651 2.20444 35.7219 1.77778C35.8636 1.77778 36.0762 1.84889 36.3597 1.77778C36.3597 1.77778 36.4306 2.06222 36.5015 2.48889C36.2889 2.56 36.0762 2.70222 35.9345 2.84444ZM34.0208 8.10667C33.5956 7.89333 33.8791 8.03555 33.95 7.96444C34.6587 8.32 35.0131 8.24889 35.5801 8.17778C35.651 8.24889 35.7927 8.39111 35.7927 8.53333C35.084 8.67556 34.5878 8.46222 34.0208 8.10667ZM36.5724 11.6622C36.5015 11.3067 36.5015 11.0933 36.3597 10.88C36.218 10.5244 35.8636 9.52889 35.5801 8.67556C35.7219 8.53333 35.8636 8.60444 35.9345 9.03111C36.0054 9.38667 36.1471 9.67111 36.218 9.95555C36.3597 10.24 36.4306 10.6667 36.5015 10.88C36.5015 10.88 36.5724 10.88 36.6433 11.0222C36.8559 11.6622 36.9268 11.8044 36.9268 12.0889C36.9976 12.3022 37.352 12.16 37.2811 12.4444H36.5724H36.8559C36.785 12.16 36.9268 11.8756 36.5724 11.6622ZM22.5389 12.2311C22.3262 12.3733 22.1136 12.4444 21.8301 12.5156L21.7592 12.4444L21.6884 11.52C21.6884 11.52 21.7592 11.52 21.8301 11.4489C21.8301 11.4489 21.8301 11.4489 21.901 11.4489L22.468 12.16C22.5389 12.16 22.5389 12.2311 22.5389 12.2311ZM21.6175 12.5156C21.4049 12.5156 21.1213 12.4444 20.9796 12.3022C20.9796 12.3022 20.9796 12.2311 20.9796 12.16L21.4757 11.3778H21.5466L21.6175 12.3022C21.6884 12.4444 21.6884 12.5156 21.6175 12.5156ZM20.4126 10.6667L20.3417 10.5956C20.4126 10.4533 20.4126 10.3822 20.5543 10.24C20.6961 10.24 20.767 10.1689 20.9087 10.1689L21.2631 10.6667C20.9796 10.6667 20.767 10.7378 20.5543 10.7378L20.4126 10.6667ZM21.4757 9.6L21.5466 9.67111V9.74222C21.334 9.81333 21.0505 9.81333 20.8378 9.88444V9.81333C21.0505 9.74222 21.2631 9.67111 21.4757 9.6ZM21.4049 10.5956L20.9796 10.0978C21.1922 10.0267 21.4049 10.0267 21.5466 9.95555V10.5244C21.5466 10.5956 21.4757 10.5956 21.4049 10.5956ZM21.334 10.7378C21.334 10.8089 21.2631 10.8089 21.2631 10.8089C21.2631 10.8089 21.2631 10.8089 21.1922 10.8089L20.9087 10.7378C21.1213 10.8089 21.1922 10.8089 21.334 10.7378ZM21.6884 10.5244V9.95555C21.901 9.88444 22.1845 9.88444 22.3971 9.81333V9.88444L22.0427 10.4533C21.901 10.4533 21.8301 10.5244 21.6884 10.5244ZM22.468 9.95555L22.5389 9.88444C22.6097 9.95555 22.7515 10.0267 22.8224 10.1689C22.6097 10.24 22.3971 10.3111 22.1845 10.3822L22.468 9.95555ZM21.6884 9.74222C21.6884 9.67111 21.6884 9.6 21.7592 9.6C21.901 9.6 22.0427 9.6 22.1845 9.67111C21.9719 9.74222 21.8301 9.74222 21.6884 9.74222ZM19.5621 10.5956C19.4912 10.5244 19.4912 10.5956 19.5621 10.5956C19.7038 10.4533 19.9164 10.3822 20.0582 10.3111C19.9873 10.3822 19.9873 10.5244 19.9164 10.6667C19.8456 10.6667 19.7038 10.6667 19.5621 10.5956ZM20.2708 10.8089C20.4126 10.8089 20.4835 10.8089 20.6252 10.8089L21.2631 10.9511C21.2631 10.9511 21.2631 11.0222 21.2631 11.0933L20.4126 11.4489C20.4126 11.4489 20.3417 11.4489 20.2708 11.4489C20.2 11.3067 20.2 11.1644 20.2 11.0222C20.2 11.0222 20.2 10.88 20.2708 10.8089ZM20.3417 11.7333L20.4126 11.6622L21.2631 11.3067L21.334 11.3778C21.334 11.3778 21.334 11.3778 21.334 11.4489L20.8378 12.2311L20.767 12.3022C20.6252 12.0889 20.4835 11.9467 20.3417 11.7333ZM22.6806 12.0889C22.6806 12.0889 22.6097 12.0889 22.6097 12.0178L22.0427 11.3067C22.0427 11.3067 22.0427 11.2356 22.1136 11.2356C22.1136 11.2356 22.1136 11.2356 22.1845 11.2356L23.035 11.4489L23.1059 11.52C22.9641 11.7333 22.8933 11.9467 22.6806 12.0889ZM23.1059 11.3778C23.1059 11.3778 23.035 11.3778 22.9641 11.3778L22.1136 11.1644V11.0933C22.1136 11.0933 22.1136 11.0933 22.1136 11.0222L22.9641 10.6667C22.9641 10.6667 23.035 10.6667 23.1059 10.6667C23.1768 10.8089 23.1768 10.9511 23.1768 11.0933C23.1059 11.1644 23.1059 11.2356 23.1059 11.3778ZM22.9641 10.4533L22.0427 10.88L21.9719 10.8089C21.9719 10.8089 21.9719 10.8089 21.9719 10.7378L22.0427 10.5956C22.3262 10.5244 22.6097 10.4533 22.8933 10.3111C22.9641 10.3822 22.9641 10.3822 22.9641 10.4533ZM25.303 9.17333C24.9487 9.45778 25.0904 9.81333 24.8778 9.88444C24.8069 9.88444 24.3108 9.95555 24.2399 10.0267C24.0982 9.88444 23.8855 9.74222 23.6729 9.67111C24.0982 9.38667 24.8778 9.24444 25.303 9.17333ZM23.7438 9.88444C23.6729 9.95555 23.4603 10.0267 23.1059 10.0978C23.035 9.95555 22.9641 9.88444 22.8224 9.81333C23.2476 9.74222 23.5311 9.81333 23.7438 9.88444ZM27.9255 4.90667C27.3585 5.54667 27.4293 6.4 27.5002 7.11111C27.3585 7.18222 27.2167 7.32444 27.075 7.32444C27.0041 6.47111 27.1458 5.19111 27.9255 4.90667ZM13.2541 5.19111C13.1832 5.04889 13.0414 4.83556 13.1123 4.69333C13.1832 4.62222 13.3958 4.69333 13.4667 4.69333C13.5376 4.76444 14.1755 5.12 14.3881 5.12C15.7347 5.47555 17.4358 4.97778 18.428 5.90222C18.4989 5.97333 18.4989 5.97333 18.4989 6.04444C16.9396 5.12 14.6007 6.68444 13.2541 5.19111ZM14.459 6.96889C14.6007 7.04 14.6007 7.18222 14.7425 7.32444C14.9551 7.68 15.3095 7.75111 15.5221 8.03555C15.4512 8.03555 15.3804 8.03555 15.3095 8.03555C15.1677 8.03555 15.0969 7.96444 15.026 7.89333C14.9551 7.82222 14.8134 7.75111 14.7425 7.82222C14.6716 7.82222 14.3881 7.82222 14.2463 7.75111C14.2463 7.53778 14.5299 7.25333 14.459 6.96889ZM12.8997 9.81333L13.325 10.24C13.0414 10.24 12.7579 10.24 12.4744 10.24V10.1689C12.5453 10.0267 12.6162 9.95555 12.6871 9.88444C12.7579 9.81333 12.8288 9.81333 12.8997 9.81333ZM15.3095 9.88444C15.3804 9.95555 15.3804 10.0267 15.4512 10.0978C15.2386 10.0978 15.026 10.1689 14.8134 10.1689L15.0969 9.88444C15.2386 9.88444 15.3095 9.88444 15.3095 9.88444ZM15.026 9.81333L14.6007 10.1689C14.459 10.1689 14.3881 10.1689 14.2463 10.1689L14.459 9.67111C14.6716 9.67111 14.8842 9.67111 15.026 9.81333C15.0969 9.81333 15.0969 9.81333 15.026 9.81333ZM14.9551 12.16C14.8134 12.3022 14.6007 12.3733 14.3881 12.4444C14.3881 12.4444 14.3172 12.3733 14.2463 12.3022L14.1046 11.3778C14.1046 11.3778 14.1755 11.3778 14.1755 11.3067L14.8134 12.0178C14.9551 12.0889 14.9551 12.16 14.9551 12.16ZM13.5376 10.5244C13.5376 10.5956 13.5376 10.5956 13.4667 10.5956L12.7579 10.3111C12.9706 10.3111 13.1832 10.3111 13.3958 10.3111C13.4667 10.3822 13.5376 10.5244 13.5376 10.5244ZM14.2463 10.4533L14.1755 10.3822V10.3111H14.459L14.2463 10.4533C14.3172 10.4533 14.3172 10.4533 14.2463 10.4533ZM14.1046 10.24C14.0337 10.24 13.9628 10.24 13.892 10.24L13.8211 9.67111H13.892C14.0337 9.67111 14.1755 9.67111 14.2463 9.67111L14.1046 10.24ZM13.6793 9.74222L13.7502 10.24C13.6793 10.24 13.5376 10.24 13.4667 10.24L13.0414 9.74222C13.2541 9.74222 13.4667 9.74222 13.6793 9.74222ZM13.8211 10.3822C13.7502 10.3822 13.7502 10.4533 13.7502 10.4533L13.6793 10.3822C13.6793 10.3822 13.7502 10.3822 13.8211 10.3822ZM12.3327 10.4533C12.3327 10.4533 12.4036 10.3822 12.5453 10.3822L13.4667 10.7378V10.8089L12.5453 10.9511C12.4744 10.9511 12.4036 10.9511 12.4036 10.88C12.4036 10.8089 12.4036 10.8089 12.4036 10.7378C12.2618 10.7378 12.3327 10.5956 12.3327 10.4533ZM12.3327 11.3067C12.3327 11.2356 12.4036 11.1644 12.4744 11.1644L13.3958 11.0222V11.0933L12.7579 11.7333C12.6871 11.8044 12.6162 11.8044 12.5453 11.7333C12.4744 11.5911 12.4036 11.4489 12.3327 11.3067ZM12.7579 12.0178C12.7579 12.0178 12.7579 11.8756 12.8288 11.8044L13.6085 11.2356L13.6793 11.3067L13.325 12.2311C13.325 12.3022 13.1832 12.3733 13.1832 12.3733C13.0414 12.2311 12.8997 12.16 12.7579 12.0178ZM13.5376 12.4444C13.5376 12.4444 13.4667 12.3733 13.4667 12.2311L13.8211 11.3067H13.892L14.1046 12.2311C14.1046 12.3022 14.1046 12.3733 14.0337 12.3733C13.9628 12.3733 13.9628 12.3733 13.892 12.3733C13.8211 12.5156 13.6793 12.5156 13.5376 12.4444ZM15.1677 11.9467C15.1677 11.9467 15.026 11.9467 14.9551 11.8756L14.3172 11.1644C14.3172 11.1644 14.3172 11.0933 14.3881 11.0933L15.3095 11.4489C15.3804 11.52 15.4512 11.5911 15.4512 11.5911C15.3804 11.7333 15.3095 11.8756 15.1677 11.9467ZM15.4512 11.52C15.4512 11.52 15.4512 11.4489 15.5221 11.4489L15.4512 11.52ZM15.593 11.2356C15.593 11.2356 15.5221 11.3067 15.3804 11.3067L14.459 10.9511V10.88L15.4512 10.7378C15.5221 10.7378 15.593 10.7378 15.593 10.8089V10.88C15.593 10.9511 15.593 11.0933 15.593 11.2356ZM15.593 10.4533C15.593 10.5244 15.5221 10.5956 15.4512 10.5956L14.459 10.7378C14.459 10.7378 14.459 10.6667 14.3881 10.6667L14.6716 10.4533C14.9551 10.4533 15.2386 10.3822 15.5221 10.3822C15.5221 10.3111 15.5221 10.3822 15.593 10.4533ZM16.0891 9.95555C16.16 9.95555 16.16 10.0267 16.0891 10.0267C16.0183 10.0267 15.8765 10.0978 15.8056 10.0978C15.7347 10.0267 15.7347 9.95555 15.6639 9.88444C15.8056 9.88444 15.9474 9.88444 16.0891 9.95555ZM14.459 9.6L14.5299 9.45778C14.5299 9.38667 14.6716 9.31556 14.6716 9.31556C14.8134 9.38667 14.9551 9.45778 15.0969 9.6C14.8842 9.6 14.6716 9.6 14.459 9.6ZM14.3881 9.24444C14.3881 9.24444 14.459 9.38667 14.459 9.45778L14.3881 9.6C14.2463 9.6 14.1046 9.6 13.9628 9.6C13.892 9.6 13.892 9.6 13.8211 9.6L13.7502 9.38667C13.7502 9.31555 13.7502 9.24444 13.8211 9.24444C13.892 9.24444 13.892 9.24444 13.9628 9.24444C14.1046 9.17333 14.2463 9.17333 14.3881 9.24444ZM13.4667 9.24444C13.5376 9.24444 13.5376 9.31555 13.6085 9.38667V9.52889C13.5376 9.45778 13.4667 9.38667 13.4667 9.24444ZM13.4667 9.6C13.325 9.6 13.1832 9.6 12.9706 9.67111C12.9706 9.6 12.9706 9.52889 12.9706 9.52889C13.0414 9.45778 13.1123 9.45778 13.1832 9.38667C13.2541 9.45778 13.325 9.52889 13.4667 9.6ZM11.7657 10.0267C11.9074 9.95555 12.0492 9.95555 12.1909 9.88444C12.1201 9.95555 12.1201 10.0267 12.0492 10.1689C11.9074 10.1689 11.8366 10.1689 11.6948 10.0978C11.6948 10.0978 11.6948 10.0978 11.7657 10.0267ZM41.0376 5.33333C41.1085 5.40444 41.1085 5.40444 41.1793 5.47555C41.1793 5.47555 41.1793 5.47555 41.1793 5.40444C41.1793 5.33333 41.1085 5.26222 41.0376 5.33333Z" fill="#1F1F1F"/>
<path d="M39.8324 12.4447H38.2731C38.2731 12.5158 38.344 12.6581 38.4149 12.7292H40.1159L40.612 12.5158C40.6829 12.3025 40.5412 12.0892 40.5412 11.9469C40.5412 11.4492 40.2576 10.9514 40.1159 10.4536C40.1868 10.3825 40.3285 10.0981 40.4703 10.1692C40.8247 10.7381 40.8955 11.4492 40.8247 12.2314C40.7538 12.4447 40.4703 12.5869 40.4703 12.7292C40.4703 12.8003 40.8955 12.7292 41.0373 12.5869C41.0373 12.4447 41.2499 12.3025 41.3208 12.3025C41.3917 12.0892 41.2499 12.0892 41.3208 11.9469C41.3917 11.8758 41.3208 10.8803 41.2499 10.7381C41.2499 10.7381 41.2499 10.7381 41.179 10.7381C41.1082 10.5247 41.3208 10.2403 41.3917 10.0269L41.9587 9.95583C41.8878 9.45805 41.746 8.96028 41.6043 8.4625C41.6752 8.32028 41.8169 8.24917 41.8878 8.17805C42.4548 7.8225 41.9587 7.1825 41.9587 6.68472C41.8878 6.47139 41.5334 6.25805 41.4625 5.97361C41.5334 6.04472 41.6043 5.97361 41.6043 6.04472C41.746 5.9025 41.746 5.76028 41.6752 5.54694C41.9587 5.2625 42.1004 5.12028 42.1004 5.04916C42.1004 4.76472 41.6752 4.40916 41.4625 4.40916C41.3208 4.48028 41.2499 4.6225 40.9664 4.83583C40.9664 4.83583 40.6829 4.76472 40.5412 4.83583C40.4703 4.90694 40.4703 5.12028 40.612 5.2625C40.612 5.33361 40.5412 5.33361 40.5412 5.40472C40.5412 5.47583 40.5412 5.47583 40.5412 5.47583C40.612 5.54694 40.612 5.61805 40.5412 5.68917C40.4703 5.83139 40.612 5.9025 40.6829 5.9025C40.6829 5.9025 40.6829 5.9025 40.7538 5.97361C40.7538 6.11583 40.3285 6.32917 40.3285 6.47139C40.2576 6.75583 40.1159 6.75583 39.9033 7.8225C39.9033 8.10694 39.9033 8.32028 39.9033 8.4625C39.6906 9.1025 39.478 9.45805 39.3363 9.88472C39.1945 10.2403 39.9741 11.3069 39.9741 12.0181C39.9741 12.3736 39.8324 12.3736 39.8324 12.4447ZM41.0373 11.3069C40.9664 11.2358 40.9664 11.0936 40.9664 10.9514C41.0373 10.8803 41.179 10.9514 41.179 10.9514C41.3208 11.3069 41.3208 11.3781 41.0373 11.3069ZM41.0373 6.25805L41.1082 6.18694C41.3208 6.04472 41.179 6.11583 40.9664 6.04472C40.8955 5.97361 40.8955 5.9025 40.8955 5.83139C40.8955 5.68917 40.8247 5.68917 40.8247 5.61805C40.8247 5.61805 40.8247 5.54694 40.8955 5.47583C40.9664 5.40472 40.9664 5.19139 41.0373 5.19139C41.4625 5.19139 41.3208 5.40472 41.3917 5.40472C41.3917 5.47583 41.6043 5.68917 41.6752 5.76028C41.6752 5.97361 41.4625 5.83139 41.5334 6.11583C41.5334 6.5425 41.0373 6.47139 40.8247 6.82694C40.6829 6.40028 41.0373 6.40028 41.0373 6.25805ZM40.612 8.03583C40.7538 8.10694 40.8247 8.24917 40.8955 8.24917C40.9664 8.39139 40.7538 8.39139 40.6829 8.4625C40.5411 8.4625 40.4703 8.32028 40.3994 8.39139H40.2576C40.3285 8.32028 40.4703 8.10694 40.612 8.03583ZM39.6198 10.1692C39.5489 9.88472 39.9741 9.45805 40.1868 8.53361C40.2576 8.4625 40.3285 8.74694 40.4703 8.67583C40.6829 8.67583 40.612 9.31583 40.8247 8.88916C40.8247 8.74694 40.8247 8.53361 40.9664 8.4625C41.1082 8.4625 41.179 8.53361 41.2499 8.60472L41.0373 8.96028C41.4625 8.96028 40.8955 9.67139 41.4625 9.52917C41.4625 9.81361 41.3208 10.5247 41.179 10.4536C41.1082 10.0269 41.0373 10.2403 41.0373 10.3114C41.0373 10.4536 41.0373 10.5958 41.1082 10.7381C41.1082 10.7381 40.9664 10.7381 40.9664 10.8092C40.6829 10.3825 40.6829 9.7425 40.4703 9.24472L40.3994 9.31583C40.3994 9.60028 40.2576 10.0269 40.045 10.1692C39.9033 10.2403 40.3994 10.1692 39.9741 10.3825C40.1159 10.4536 39.9741 10.5958 39.8324 10.5958C39.7615 10.4536 39.6906 10.3114 39.6198 10.1692ZM40.045 11.1647C39.9741 11.0936 39.9033 10.8803 39.8324 10.8092L40.045 10.7381C40.1159 10.8092 40.1868 10.9514 40.1868 11.0936C40.1868 11.0936 40.1159 11.1647 40.045 11.1647ZM32.603 6.40028C32.603 5.9025 32.7448 5.54694 32.5321 5.04916C32.5321 4.83583 32.6739 4.69361 32.6739 4.48028L32.3195 4.55139C32.2486 4.97805 32.1777 5.04916 32.2486 5.47583C32.3195 5.9025 32.3904 6.25805 32.603 6.40028ZM28.9174 7.75139C30.2641 7.39583 31.2564 7.04028 32.3195 6.5425C31.8234 5.54694 31.9651 5.2625 31.9651 4.6225C31.9651 4.6225 31.3981 4.6225 30.6893 4.48028C29.9806 4.90694 29.0592 6.75583 28.9174 7.75139ZM33.5953 8.03583C33.5244 7.96472 33.6661 8.03583 33.5953 8.03583V8.03583ZM35.2254 4.97805C34.6584 4.55139 34.2332 3.62694 33.5953 3.69805C33.5244 2.98694 33.2409 1.84916 34.1623 0.640276C34.304 0.569165 34.5167 0.569165 34.5875 0.498054C34.2332 0.426943 33.6661 0.711387 33.3118 0.498054C33.3118 0.498054 33.4535 0.782498 33.6661 0.853609C33.5953 0.995832 33.3118 1.13805 33.4535 1.4225C33.17 1.63583 33.2409 1.92028 33.3826 2.0625C33.2409 2.20472 33.0991 2.48916 33.3118 2.7025C33.0283 2.98694 33.3826 3.20028 33.4535 3.27139C33.3118 3.55583 33.4535 3.76917 33.4535 3.76917C33.4535 3.9825 33.0991 4.26694 32.9574 4.33805C32.8156 4.83583 32.8865 5.76028 32.8865 6.32916C33.737 5.9025 34.5875 5.54694 35.2254 4.97805ZM25.4445 21.3336C25.4445 20.8358 25.0901 20.2669 24.6649 19.9825C24.5231 19.9114 24.4522 19.9114 24.3105 19.8403C24.4522 19.8403 24.594 19.8403 24.7357 19.7692C25.161 19.5558 25.728 18.9869 25.728 17.9914C25.728 17.2803 25.4445 16.6403 24.8775 16.2847C24.3814 15.9292 23.8143 15.8581 23.1765 15.8581H18.5695V17.0669H19.6326V23.0403H18.5695V24.2492H21.9007V23.0403H20.8375V20.4092H23.1056C23.8852 20.4092 24.1687 20.9069 24.2396 21.4047L24.3105 24.2492H26.5785V23.0403H25.5154L25.4445 21.3336ZM23.3182 19.2714H20.7667V17.0669H23.1765C23.3891 17.0669 23.7435 17.0669 23.9561 17.2092C24.2396 17.3514 24.5231 17.7069 24.5231 18.2047C24.594 18.8447 24.027 19.2714 23.3182 19.2714ZM18.1442 27.1647H16.585V31.9292H17.2937V29.8669H18.0734C19.2074 29.8669 19.7035 29.2981 19.7035 28.5158C19.7035 27.8047 19.2074 27.1647 18.1442 27.1647ZM18.1442 29.2981H17.2937V27.8047H18.1442C18.7821 27.8047 18.9948 28.1603 18.9948 28.5158C18.9948 29.0136 18.6404 29.2981 18.1442 29.2981ZM22.3968 27.1647L20.2705 31.9292H21.0502L21.6172 30.5069H23.6726L24.2396 31.9292H25.0192L22.8221 27.1647H22.3968ZM21.9007 29.9381L22.6094 28.0892L23.3891 29.9381H21.9007ZM32.3195 27.1647H33.0283V31.9292H32.3195V27.1647ZM35.9342 28.3025C35.9342 27.9469 36.2886 27.7336 36.7847 27.7336C37.1391 27.7336 37.5643 27.8758 37.9896 28.2314V27.4492C37.6352 27.2358 37.21 27.0936 36.8556 27.0936C35.9342 27.0936 35.2963 27.5914 35.2963 28.3736C35.2963 29.6536 37.5643 29.7958 37.5643 30.7914C37.5643 31.0758 37.2808 31.3603 36.7138 31.3603C36.2177 31.3603 35.7216 31.1469 35.3672 30.6492V31.5025C35.7924 31.7869 36.2177 31.9292 36.7847 31.9292C37.6352 31.9292 38.2022 31.3603 38.2022 30.6492C38.1314 29.2269 35.9342 29.2269 35.9342 28.3025ZM29.8388 31.0047C29.4844 30.4358 29.2009 29.9381 28.7048 29.6536C29.2718 29.4403 29.5553 29.0136 29.5553 28.5158C29.5553 27.6625 28.9174 27.1647 27.9252 27.1647H26.6494V31.9292H27.3582V29.8669H27.6417C27.996 29.8669 28.2796 30.0092 28.9883 30.9336L29.6262 31.9292H30.4767L30.1223 31.3603C29.9806 31.2892 29.9097 31.1469 29.8388 31.0047ZM27.7834 29.2269H27.3582V27.7336H27.7834C28.4922 27.7336 28.7757 28.0181 28.7757 28.4447C28.7757 28.8714 28.5631 29.2269 27.7834 29.2269Z" fill="#1F1F1F"/>
</g>
<defs>
<clipPath id="clip0_8313_1154">
<rect width="55" height="32" fill="white"/>
</clipPath>
</defs>
</svg>
