<svg width="284" height="38" viewBox="0 0 284 38" fill="none" xmlns="http://www.w3.org/2000/svg">
<path d="M0 12C0 5.37258 5.37258 0 12 0H272C278.627 0 284 5.37258 284 12V26C284 32.6274 278.627 38 272 38H12C5.37258 38 0 32.6274 0 26V12Z" fill="#F67011"/>
<path d="M26.2493 11.3029C26.5945 11.9111 26.3897 12.6887 25.7919 13.0398C25.1941 13.3909 24.4298 13.1825 24.0846 12.5744C23.7395 11.9663 23.9443 11.1886 24.5421 10.8375C25.1399 10.4864 25.9042 10.6948 26.2493 11.3029Z" fill="#FEFFFF"/>
<path d="M24.8435 13.1671L24.4046 14.8337M26.2493 11.3029C26.5945 11.9111 26.3897 12.6887 25.7919 13.0398C25.1941 13.3909 24.4298 13.1825 24.0846 12.5744C23.7395 11.9663 23.9443 11.1886 24.5421 10.8375C25.1399 10.4864 25.9042 10.6948 26.2493 11.3029Z" stroke="#FEFFFF" stroke-width="1.5" stroke-linecap="round"/>
<path d="M26.833 27.3317C26.0255 26.348 24.7497 24 23.083 24C22.0078 24.0883 21.4461 25.1342 20.8732 25.9406M20.8732 25.9406C20.5428 25.6342 20.4184 25.1772 20.1697 24.2632L18.7165 18.9228C18.1317 16.7736 17.8393 15.6989 18.3356 14.8523C18.832 14.0057 19.9234 13.7178 22.1061 13.1419L23.9163 12.6642M20.8732 25.9406C21.2037 26.2471 21.6744 26.3419 22.6158 26.5316L26.0674 27.2271C26.8032 27.3754 26.8098 27.3752 27.5352 27.1838L29.8933 26.5616C32.076 25.9857 33.1673 25.6978 33.6637 24.8511C34.1601 24.0045 33.8677 22.9299 33.2828 20.7806L31.8354 15.4615C31.2505 13.3122 30.9581 12.2375 30.0983 11.7488C29.3493 11.3229 28.4245 11.4866 26.7555 11.9167" stroke="#FEFFFF" stroke-width="1.5"/>
<path d="M49.288 24V14.06H53.054C53.754 14.06 54.356 14.1813 54.86 14.424C55.364 14.6667 55.7513 15.0167 56.022 15.474C56.302 15.922 56.442 16.454 56.442 17.07C56.442 17.518 56.3347 17.9193 56.12 18.274C55.9147 18.6193 55.6487 18.8947 55.322 19.1C54.9953 19.3053 54.6547 19.4173 54.3 19.436L54.216 19.31C54.8227 19.31 55.2987 19.45 55.644 19.73C55.9987 20.01 56.204 20.458 56.26 21.074L56.54 24H55.322L55.07 21.2C55.0327 20.7893 54.8833 20.486 54.622 20.29C54.37 20.094 53.9547 19.996 53.376 19.996H50.492V24H49.288ZM50.492 18.82H53.208C53.8147 18.82 54.2953 18.666 54.65 18.358C55.0047 18.05 55.182 17.6113 55.182 17.042C55.182 16.4633 55 16.02 54.636 15.712C54.272 15.3947 53.7447 15.236 53.054 15.236H50.492V18.82ZM58.5263 24V16.58H59.7023V24H58.5263ZM58.4983 15.418V14.046H59.7303V15.418H58.4983ZM63.2915 24L60.9955 16.58H62.2835L64.0195 22.768L65.7835 16.58H67.0435L68.8075 22.768L70.5575 16.58H71.8455L69.5495 24H68.0655L66.4135 18.358L64.7615 24H63.2915ZM74.9658 24.168C74.2004 24.168 73.5891 23.9907 73.1318 23.636C72.6838 23.2813 72.4598 22.7867 72.4598 22.152C72.4598 21.5173 72.6464 21.018 73.0198 20.654C73.3931 20.29 73.9858 20.0333 74.7978 19.884L77.4298 19.394C77.4298 18.7687 77.2804 18.302 76.9818 17.994C76.6924 17.686 76.2538 17.532 75.6658 17.532C75.1524 17.532 74.7464 17.6487 74.4478 17.882C74.1491 18.106 73.9438 18.4327 73.8318 18.862L72.5858 18.764C72.7258 18.064 73.0618 17.4993 73.5938 17.07C74.1351 16.6313 74.8258 16.412 75.6658 16.412C76.6178 16.412 77.3458 16.6827 77.8498 17.224C78.3538 17.756 78.6058 18.4933 78.6058 19.436V22.502C78.6058 22.67 78.6338 22.7913 78.6898 22.866C78.7551 22.9313 78.8578 22.964 78.9978 22.964H79.2918V24C79.2544 24.0093 79.1938 24.014 79.1098 24.014C79.0258 24.0233 78.9371 24.028 78.8438 24.028C78.5078 24.028 78.2324 23.9767 78.0178 23.874C77.8124 23.762 77.6631 23.594 77.5698 23.37C77.4764 23.1367 77.4298 22.8333 77.4298 22.46L77.5698 22.488C77.5044 22.8053 77.3458 23.0947 77.0938 23.356C76.8418 23.608 76.5291 23.8087 76.1558 23.958C75.7824 24.098 75.3858 24.168 74.9658 24.168ZM75.0778 23.132C75.5724 23.132 75.9924 23.0387 76.3378 22.852C76.6924 22.656 76.9631 22.3947 77.1498 22.068C77.3364 21.732 77.4298 21.3587 77.4298 20.948V20.416L75.0218 20.864C74.5178 20.9573 74.1678 21.102 73.9718 21.298C73.7851 21.4847 73.6917 21.732 73.6917 22.04C73.6917 22.3853 73.8131 22.656 74.0558 22.852C74.3078 23.0387 74.6484 23.132 75.0778 23.132ZM80.6549 26.1V25.064H81.5089C81.7702 25.064 81.9616 25.022 82.0829 24.938C82.2136 24.8633 82.3116 24.7373 82.3769 24.56L82.6429 23.86H82.2369L79.5209 16.58H80.8089L83.0209 22.768L85.1349 16.58H86.4229L83.4129 24.938C83.2729 25.3393 83.0629 25.6333 82.7829 25.82C82.5029 26.0067 82.1156 26.1 81.6209 26.1H80.6549ZM89.54 24.168C88.7746 24.168 88.1633 23.9907 87.706 23.636C87.258 23.2813 87.034 22.7867 87.034 22.152C87.034 21.5173 87.2206 21.018 87.594 20.654C87.9673 20.29 88.56 20.0333 89.372 19.884L92.004 19.394C92.004 18.7687 91.8546 18.302 91.556 17.994C91.2666 17.686 90.828 17.532 90.24 17.532C89.7266 17.532 89.3206 17.6487 89.022 17.882C88.7233 18.106 88.518 18.4327 88.406 18.862L87.16 18.764C87.3 18.064 87.636 17.4993 88.168 17.07C88.7093 16.6313 89.4 16.412 90.24 16.412C91.192 16.412 91.92 16.6827 92.424 17.224C92.928 17.756 93.18 18.4933 93.18 19.436V22.502C93.18 22.67 93.208 22.7913 93.264 22.866C93.3293 22.9313 93.432 22.964 93.572 22.964H93.866V24C93.8286 24.0093 93.768 24.014 93.684 24.014C93.6 24.0233 93.5113 24.028 93.418 24.028C93.082 24.028 92.8066 23.9767 92.592 23.874C92.3866 23.762 92.2373 23.594 92.144 23.37C92.0506 23.1367 92.004 22.8333 92.004 22.46L92.144 22.488C92.0786 22.8053 91.92 23.0947 91.668 23.356C91.416 23.608 91.1033 23.8087 90.73 23.958C90.3566 24.098 89.96 24.168 89.54 24.168ZM89.652 23.132C90.1466 23.132 90.5666 23.0387 90.912 22.852C91.2666 22.656 91.5373 22.3947 91.724 22.068C91.9106 21.732 92.004 21.3587 92.004 20.948V20.416L89.596 20.864C89.092 20.9573 88.742 21.102 88.546 21.298C88.3593 21.4847 88.266 21.732 88.266 22.04C88.266 22.3853 88.3873 22.656 88.63 22.852C88.882 23.0387 89.2226 23.132 89.652 23.132ZM97.5411 24C96.8691 24 96.3697 23.846 96.0431 23.538C95.7257 23.23 95.5671 22.7493 95.5671 22.096V14.844H96.7431V22.068C96.7431 22.404 96.8177 22.6373 96.9671 22.768C97.1164 22.8987 97.3451 22.964 97.6531 22.964H98.7171V24H97.5411ZM94.4751 17.616V16.58H98.7171V17.616H94.4751ZM103.976 24V14.06H107.546C108.656 14.06 109.52 14.326 110.136 14.858C110.752 15.39 111.06 16.1273 111.06 17.07C111.06 17.7047 110.92 18.2553 110.64 18.722C110.36 19.1793 109.958 19.5293 109.436 19.772C108.913 20.0147 108.283 20.136 107.546 20.136H105.18V24H103.976ZM105.18 18.96H107.546C108.292 18.96 108.852 18.8013 109.226 18.484C109.608 18.1667 109.8 17.6953 109.8 17.07C109.8 16.4633 109.608 16.006 109.226 15.698C108.852 15.39 108.292 15.236 107.546 15.236H105.18V18.96ZM115.414 24.168C114.714 24.168 114.108 24.0093 113.594 23.692C113.09 23.3747 112.698 22.9267 112.418 22.348C112.148 21.76 112.012 21.074 112.012 20.29C112.012 19.506 112.148 18.8247 112.418 18.246C112.698 17.6673 113.086 17.2193 113.58 16.902C114.084 16.5753 114.677 16.412 115.358 16.412C116.002 16.412 116.572 16.566 117.066 16.874C117.561 17.1727 117.944 17.6113 118.214 18.19C118.494 18.7687 118.634 19.4733 118.634 20.304V20.654H113.244C113.291 21.4473 113.501 22.0447 113.874 22.446C114.257 22.8473 114.77 23.048 115.414 23.048C115.9 23.048 116.296 22.936 116.604 22.712C116.922 22.4787 117.141 22.1753 117.262 21.802L118.522 21.9C118.326 22.5627 117.953 23.1087 117.402 23.538C116.861 23.958 116.198 24.168 115.414 24.168ZM113.244 19.618H117.346C117.29 18.8993 117.08 18.372 116.716 18.036C116.362 17.7 115.909 17.532 115.358 17.532C114.789 17.532 114.318 17.7093 113.944 18.064C113.58 18.4093 113.347 18.9273 113.244 19.618ZM120.227 24V16.58H121.305L121.347 18.47L121.207 18.344C121.301 17.9053 121.464 17.546 121.697 17.266C121.931 16.9767 122.211 16.762 122.537 16.622C122.873 16.482 123.233 16.412 123.615 16.412C124.185 16.412 124.651 16.538 125.015 16.79C125.389 17.042 125.664 17.3827 125.841 17.812C126.028 18.232 126.121 18.7033 126.121 19.226V24H124.945V19.562C124.945 19.1047 124.889 18.722 124.777 18.414C124.675 18.0967 124.507 17.8587 124.273 17.7C124.04 17.532 123.737 17.448 123.363 17.448C122.794 17.448 122.323 17.63 121.949 17.994C121.585 18.3487 121.403 18.8713 121.403 19.562V24H120.227ZM131.012 26.268C130.48 26.268 129.999 26.1793 129.57 26.002C129.141 25.8247 128.781 25.5727 128.492 25.246C128.203 24.9193 128.007 24.5413 127.904 24.112L129.136 24.028C129.248 24.3733 129.444 24.644 129.724 24.84C130.013 25.0453 130.443 25.148 131.012 25.148C131.684 25.148 132.197 25.0127 132.552 24.742C132.916 24.4713 133.098 24.0653 133.098 23.524V22.32C132.921 22.712 132.636 23.0247 132.244 23.258C131.852 23.4913 131.413 23.608 130.928 23.608C130.303 23.608 129.743 23.454 129.248 23.146C128.763 22.838 128.38 22.4133 128.1 21.872C127.829 21.3307 127.694 20.71 127.694 20.01C127.694 19.3007 127.829 18.68 128.1 18.148C128.371 17.6067 128.744 17.182 129.22 16.874C129.705 16.566 130.256 16.412 130.872 16.412C131.395 16.412 131.861 16.5333 132.272 16.776C132.692 17.0187 132.986 17.3453 133.154 17.756V16.58H134.274V23.496C134.274 24.0747 134.143 24.5693 133.882 24.98C133.621 25.4 133.247 25.7173 132.762 25.932C132.277 26.156 131.693 26.268 131.012 26.268ZM130.984 22.488C131.619 22.488 132.127 22.2687 132.51 21.83C132.893 21.382 133.089 20.7753 133.098 20.01C133.107 19.4967 133.023 19.058 132.846 18.694C132.678 18.3207 132.431 18.036 132.104 17.84C131.787 17.6347 131.413 17.532 130.984 17.532C130.331 17.532 129.822 17.756 129.458 18.204C129.103 18.6427 128.926 19.2447 128.926 20.01C128.926 20.7753 129.108 21.382 129.472 21.83C129.845 22.2687 130.349 22.488 130.984 22.488ZM138.513 24.168C137.747 24.168 137.136 23.9907 136.679 23.636C136.231 23.2813 136.007 22.7867 136.007 22.152C136.007 21.5173 136.193 21.018 136.567 20.654C136.94 20.29 137.533 20.0333 138.345 19.884L140.977 19.394C140.977 18.7687 140.827 18.302 140.529 17.994C140.239 17.686 139.801 17.532 139.213 17.532C138.699 17.532 138.293 17.6487 137.995 17.882C137.696 18.106 137.491 18.4327 137.379 18.862L136.133 18.764C136.273 18.064 136.609 17.4993 137.141 17.07C137.682 16.6313 138.373 16.412 139.213 16.412C140.165 16.412 140.893 16.6827 141.397 17.224C141.901 17.756 142.153 18.4933 142.153 19.436V22.502C142.153 22.67 142.181 22.7913 142.237 22.866C142.302 22.9313 142.405 22.964 142.545 22.964H142.839V24C142.801 24.0093 142.741 24.014 142.657 24.014C142.573 24.0233 142.484 24.028 142.391 24.028C142.055 24.028 141.779 23.9767 141.565 23.874C141.359 23.762 141.21 23.594 141.117 23.37C141.023 23.1367 140.977 22.8333 140.977 22.46L141.117 22.488C141.051 22.8053 140.893 23.0947 140.641 23.356C140.389 23.608 140.076 23.8087 139.703 23.958C139.329 24.098 138.933 24.168 138.513 24.168ZM138.625 23.132C139.119 23.132 139.539 23.0387 139.885 22.852C140.239 22.656 140.51 22.3947 140.697 22.068C140.883 21.732 140.977 21.3587 140.977 20.948V20.416L138.569 20.864C138.065 20.9573 137.715 21.102 137.519 21.298C137.332 21.4847 137.239 21.732 137.239 22.04C137.239 22.3853 137.36 22.656 137.603 22.852C137.855 23.0387 138.195 23.132 138.625 23.132ZM146.772 24.168C146.128 24.168 145.568 24.0093 145.092 23.692C144.625 23.3747 144.266 22.9267 144.014 22.348C143.762 21.7693 143.636 21.0833 143.636 20.29C143.636 19.4967 143.762 18.8107 144.014 18.232C144.266 17.6533 144.625 17.2053 145.092 16.888C145.568 16.5707 146.128 16.412 146.772 16.412C147.266 16.412 147.719 16.5193 148.13 16.734C148.54 16.9393 148.848 17.2333 149.054 17.616V14.06H150.23V24H149.166L149.124 22.88C148.918 23.2813 148.606 23.5987 148.186 23.832C147.766 24.056 147.294 24.168 146.772 24.168ZM147.01 23.048C147.448 23.048 147.817 22.936 148.116 22.712C148.424 22.488 148.657 22.1707 148.816 21.76C148.974 21.34 149.054 20.85 149.054 20.29C149.054 19.7113 148.974 19.2167 148.816 18.806C148.657 18.3953 148.424 18.0827 148.116 17.868C147.817 17.644 147.448 17.532 147.01 17.532C146.356 17.532 145.834 17.7793 145.442 18.274C145.059 18.7593 144.868 19.4313 144.868 20.29C144.868 21.1393 145.059 21.8113 145.442 22.306C145.834 22.8007 146.356 23.048 147.01 23.048ZM154.628 24.168C153.891 24.168 153.298 23.9207 152.85 23.426C152.412 22.922 152.192 22.2313 152.192 21.354V16.58H153.368V21.032C153.368 21.7507 153.494 22.2827 153.746 22.628C154.008 22.964 154.404 23.132 154.936 23.132C155.524 23.132 155.986 22.9453 156.322 22.572C156.658 22.1893 156.826 21.6667 156.826 21.004V16.58H158.002V24H156.882V22.166L157.064 22.264C156.915 22.8707 156.63 23.342 156.21 23.678C155.79 24.0047 155.263 24.168 154.628 24.168ZM162.247 24.168C161.482 24.168 160.87 23.9907 160.413 23.636C159.965 23.2813 159.741 22.7867 159.741 22.152C159.741 21.5173 159.928 21.018 160.301 20.654C160.674 20.29 161.267 20.0333 162.079 19.884L164.711 19.394C164.711 18.7687 164.562 18.302 164.263 17.994C163.974 17.686 163.535 17.532 162.947 17.532C162.434 17.532 162.028 17.6487 161.729 17.882C161.43 18.106 161.225 18.4327 161.113 18.862L159.867 18.764C160.007 18.064 160.343 17.4993 160.875 17.07C161.416 16.6313 162.107 16.412 162.947 16.412C163.899 16.412 164.627 16.6827 165.131 17.224C165.635 17.756 165.887 18.4933 165.887 19.436V22.502C165.887 22.67 165.915 22.7913 165.971 22.866C166.036 22.9313 166.139 22.964 166.279 22.964H166.573V24C166.536 24.0093 166.475 24.014 166.391 24.014C166.307 24.0233 166.218 24.028 166.125 24.028C165.789 24.028 165.514 23.9767 165.299 23.874C165.094 23.762 164.944 23.594 164.851 23.37C164.758 23.1367 164.711 22.8333 164.711 22.46L164.851 22.488C164.786 22.8053 164.627 23.0947 164.375 23.356C164.123 23.608 163.81 23.8087 163.437 23.958C163.064 24.098 162.667 24.168 162.247 24.168ZM162.359 23.132C162.854 23.132 163.274 23.0387 163.619 22.852C163.974 22.656 164.244 22.3947 164.431 22.068C164.618 21.732 164.711 21.3587 164.711 20.948V20.416L162.303 20.864C161.799 20.9573 161.449 21.102 161.253 21.298C161.066 21.4847 160.973 21.732 160.973 22.04C160.973 22.3853 161.094 22.656 161.337 22.852C161.589 23.0387 161.93 23.132 162.359 23.132ZM167.901 24V16.58H168.979L169.021 18.47L168.881 18.344C168.975 17.9053 169.138 17.546 169.371 17.266C169.605 16.9767 169.885 16.762 170.211 16.622C170.547 16.482 170.907 16.412 171.289 16.412C171.859 16.412 172.325 16.538 172.689 16.79C173.063 17.042 173.338 17.3827 173.515 17.812C173.702 18.232 173.795 18.7033 173.795 19.226V24H172.619V19.562C172.619 19.1047 172.563 18.722 172.451 18.414C172.349 18.0967 172.181 17.8587 171.947 17.7C171.714 17.532 171.411 17.448 171.037 17.448C170.468 17.448 169.997 17.63 169.623 17.994C169.259 18.3487 169.077 18.8713 169.077 19.562V24H167.901Z" fill="#FEFFFF"/>
</svg>
