<svg width="16" height="16" viewBox="0 0 16 16" fill="none" xmlns="http://www.w3.org/2000/svg">
<path d="M4.66699 12C3.44771 12.2745 2.66699 12.6962 2.66699 13.1691C2.66699 13.9962 5.05481 14.6667 8.00033 14.6667C10.9458 14.6667 13.3337 13.9962 13.3337 13.1691C13.3337 12.6962 12.5529 12.2745 11.3337 12" stroke="#757575" stroke-width="1.5" stroke-linecap="round"/>
<path d="M9.66634 6.00065C9.66634 6.92113 8.92015 7.66732 7.99967 7.66732C7.0792 7.66732 6.33301 6.92113 6.33301 6.00065C6.33301 5.08018 7.0792 4.33398 7.99967 4.33398C8.92015 4.33398 9.66634 5.08018 9.66634 6.00065Z" stroke="#757575" stroke-width="1.5"/>
<path d="M8.83794 11.663C8.61309 11.8796 8.31255 12.0007 7.99978 12.0007C7.687 12.0007 7.38646 11.8796 7.16161 11.663C5.10254 9.66784 2.34313 7.43901 3.68881 4.20314C4.41641 2.45353 6.16297 1.33398 7.99978 1.33398C9.83658 1.33398 11.5831 2.45353 12.3107 4.20314C13.6547 7.43493 10.9021 9.67472 8.83794 11.663Z" stroke="#757575" stroke-width="1.5"/>
</svg>
