<svg width="44" height="44" viewBox="0 0 44 44" fill="none" xmlns="http://www.w3.org/2000/svg">
<path d="M30.25 3.66699V9.16699M13.75 3.66699V9.16699M22 3.66699V9.16699" stroke="#E75A0F" stroke-width="2.4" stroke-linecap="round" stroke-linejoin="round"/>
<path d="M23.834 6.41699H20.1673C14.1176 6.41699 11.0928 6.41699 9.21339 8.2964C7.33398 10.1758 7.33398 13.2006 7.33398 19.2503V27.5003C7.33398 33.55 7.33398 36.5748 9.21339 38.4543C11.0928 40.3337 14.1176 40.3337 20.1673 40.3337H23.834C29.8836 40.3337 32.9084 40.3337 34.788 38.4543C36.6673 36.5748 36.6673 33.55 36.6673 27.5003V19.2503C36.6673 13.2006 36.6673 10.1758 34.788 8.29638C32.9084 6.41699 29.8836 6.41699 23.834 6.41699Z" stroke="#E75A0F" stroke-width="2.4" stroke-linecap="round" stroke-linejoin="round"/>
<path d="M14.666 27.5003H21.9993M14.666 20.167H29.3327" stroke="#E75A0F" stroke-width="2.4" stroke-linecap="round" stroke-linejoin="round"/>
</svg>
