<svg width="18" height="18" viewBox="0 0 18 18" fill="none" xmlns="http://www.w3.org/2000/svg">
<path d="M12.1606 3.73679L13.2119 2.68547C13.7925 2.10484 14.7339 2.10484 15.3145 2.68547C15.8952 3.2661 15.8952 4.20748 15.3145 4.78811L14.2632 5.83943M12.1606 3.73679L8.23517 7.66219C7.45119 8.44616 7.0592 8.83816 6.79228 9.31583C6.52536 9.79351 6.2568 10.9214 6 12C7.07856 11.7432 8.20649 11.4746 8.68417 11.2077C9.16184 10.9408 9.55383 10.5488 10.3378 9.76483L14.2632 5.83943M12.1606 3.73679L14.2632 5.83943" stroke="#757575" stroke-width="1.5" stroke-linecap="round" stroke-linejoin="round"/>
<path d="M15.75 9C15.75 12.182 15.75 13.773 14.7615 14.7615C13.773 15.75 12.182 15.75 9 15.75C5.81802 15.75 4.22703 15.75 3.23851 14.7615C2.25 13.773 2.25 12.182 2.25 9C2.25 5.81802 2.25 4.22703 3.23851 3.23851C4.22703 2.25 5.81802 2.25 9 2.25" stroke="#757575" stroke-width="1.5" stroke-linecap="round"/>
</svg>
