<svg width="20" height="16" viewBox="0 0 20 16" fill="none" xmlns="http://www.w3.org/2000/svg">
<path d="M7.37695 2.30566C7.63734 1.79887 8.36265 1.79887 8.62305 2.30566L10.0947 5.16992C10.257 5.48574 10.5143 5.743 10.8301 5.90527L13.6943 7.37695C14.2011 7.63734 14.2011 8.36265 13.6943 8.62305L10.8301 10.0947C10.5143 10.257 10.257 10.5143 10.0947 10.8301L8.62305 13.6943C8.36266 14.2011 7.63734 14.2011 7.37695 13.6943L5.90527 10.8301C5.743 10.5143 5.48574 10.257 5.16992 10.0947L2.30566 8.62305C1.79887 8.36266 1.79887 7.63734 2.30566 7.37695L5.16992 5.90527C5.48574 5.743 5.743 5.48574 5.90527 5.16992L7.37695 2.30566Z" stroke="#F67011"/>
<path d="M11.5069 2.07737C11.9533 1.20858 13.1952 1.20859 13.6416 2.07737L15.1134 4.9419C15.2279 5.16483 15.4094 5.34631 15.6323 5.46085L18.4969 6.93265C19.3656 7.37903 19.3656 8.62097 18.4969 9.06736L15.6323 10.5392C15.4094 10.6537 15.2279 10.8352 15.1134 11.0581L13.6416 13.9226C13.1952 14.7914 11.9532 14.7914 11.5069 13.9226L10.0351 11.0581C9.92052 10.8352 9.73905 10.6537 9.51612 10.5392L6.65159 9.06736C5.7828 8.62097 5.7828 7.37903 6.65159 6.93265L9.51612 5.46085C9.73905 5.34631 9.92052 5.16483 10.0351 4.9419L11.5069 2.07737Z" fill="#F67011"/>
</svg>
