<svg width="20" height="20" viewBox="0 0 20 20" fill="none" xmlns="http://www.w3.org/2000/svg">
<path d="M10.2493 2.30293C10.5945 2.91106 10.3897 3.68866 9.79189 4.03977C9.19412 4.39087 8.42976 4.18251 8.08464 3.57438C7.73952 2.96626 7.94433 2.18865 8.5421 1.83755C9.13986 1.48645 9.90422 1.6948 10.2493 2.30293Z" fill="#1F1F1F"/>
<path d="M8.84354 4.16706L8.40459 5.83366M10.2493 2.30293C10.5945 2.91106 10.3897 3.68866 9.79189 4.03977C9.19412 4.39087 8.42976 4.18251 8.08464 3.57438C7.73952 2.96626 7.94433 2.18865 8.5421 1.83755C9.13986 1.48645 9.90422 1.6948 10.2493 2.30293Z" stroke="#1F1F1F" stroke-width="1.5" stroke-linecap="round"/>
<path d="M10.833 18.3317C10.0255 17.348 8.74967 15 7.08301 15C6.0078 15.0883 5.44611 16.1342 4.87323 16.9406M4.87323 16.9406C4.54279 16.6342 4.41843 16.1772 4.16972 15.2632L2.71653 9.92283C2.13168 7.77355 1.83925 6.69892 2.33564 5.85232C2.83202 5.00571 3.92337 4.71777 6.10606 4.14187L7.91634 3.66423M4.87323 16.9406C5.20367 17.2471 5.67439 17.3419 6.61584 17.5316L10.0674 18.2271C10.8032 18.3754 10.8098 18.3752 11.5352 18.1838L13.8933 17.5616C16.076 16.9857 17.1673 16.6978 17.6637 15.8511C18.1601 15.0045 17.8677 13.9299 17.2828 11.7806L15.8354 6.46146C15.2505 4.31218 14.9581 3.23755 14.0983 2.74876C13.3493 2.32293 12.4245 2.48663 10.7555 2.91667" stroke="#1F1F1F" stroke-width="1.5"/>
</svg>
