<svg width="20" height="20" viewBox="0 0 20 20" fill="none" xmlns="http://www.w3.org/2000/svg">
<path d="M3.95032 11.9738L5.57792 10.818C6.03704 10.492 6.50254 10.2735 7.03362 10.1321C7.64334 9.96967 7.91667 9.63701 7.91667 8.92584C7.91667 7.12191 12.0833 6.92996 12.0833 8.92584C12.0833 9.63701 12.3567 9.96967 12.9664 10.1321C13.5017 10.2746 13.9666 10.4945 14.4221 10.818L16.0497 11.9738C16.7862 12.4968 17.1289 12.7496 17.3202 13.1516C17.5 13.5298 17.5 13.9733 17.5 14.8603C17.5 16.4551 17.5 17.2525 17.0535 17.7637C16.5127 18.3828 15.1067 18.3296 14.2431 18.3296H5.75694C4.89331 18.3296 3.51591 18.4155 2.9465 17.7637C2.5 17.2525 2.5 16.4551 2.5 14.8603C2.5 13.9733 2.5 13.5298 2.67987 13.1516C2.87105 12.7496 3.21385 12.4968 3.95032 11.9738Z" stroke="#FEFFFF" stroke-width="1.5"/>
<path d="M11.6673 14.1667C11.6673 15.0872 10.9212 15.8333 10.0007 15.8333C9.08015 15.8333 8.33398 15.0872 8.33398 14.1667C8.33398 13.2462 9.08015 12.5 10.0007 12.5C10.9212 12.5 11.6673 13.2462 11.6673 14.1667Z" stroke="#FEFFFF" stroke-width="1.5"/>
<path d="M5.79947 3.08143C4.70077 3.39512 3.91088 3.78426 3.18806 4.25379C2.04367 4.99716 1.55304 6.3367 1.68774 7.62927C1.74468 8.17556 2.18322 8.43675 2.69176 8.29546C3.07811 8.18809 3.46508 8.08358 3.84902 7.9697C4.9719 7.63664 5.23601 7.23176 5.39205 6.08237L5.79947 3.08143ZM5.79947 3.08143C8.51485 2.30619 11.4838 2.30619 14.1993 3.08143M14.1993 3.08143C15.2979 3.39512 16.0879 3.78426 16.8106 4.25379C17.955 4.99716 18.4457 6.3367 18.3109 7.62927C18.254 8.17556 17.8155 8.43675 17.3069 8.29546C16.9206 8.18809 16.5336 8.08358 16.1497 7.9697C15.0268 7.63664 14.7627 7.23176 14.6067 6.08237L14.1993 3.08143Z" stroke="#FEFFFF" stroke-width="1.5" stroke-linejoin="round"/>
</svg>
