<svg width="177" height="64" viewBox="0 0 177 64" fill="none" xmlns="http://www.w3.org/2000/svg">
<g filter="url(#filter0_d_8085_433)">
<path d="M15 17C15 13.6863 17.6863 11 21 11H156C159.314 11 162 13.6863 162 17V39C162 42.3137 159.314 45 156 45H21C17.6863 45 15 42.3137 15 39V17Z" fill="#1F1F1F"/>
<path d="M29.724 32V24.836H27.132V23.48H33.864V24.836H31.284V32H29.724ZM35.8641 32.144C35.1921 32.144 34.6521 31.992 34.2441 31.688C33.8361 31.376 33.6321 30.944 33.6321 30.392C33.6321 29.84 33.8041 29.408 34.1481 29.096C34.4921 28.784 35.0161 28.56 35.7201 28.424L37.8441 28.004C37.8441 27.548 37.7401 27.208 37.5321 26.984C37.3241 26.752 37.0161 26.636 36.6081 26.636C36.2401 26.636 35.9481 26.724 35.7321 26.9C35.5241 27.068 35.3801 27.312 35.3001 27.632L33.7401 27.56C33.8681 26.88 34.1801 26.36 34.6761 26C35.1721 25.632 35.8161 25.448 36.6081 25.448C37.5201 25.448 38.2081 25.68 38.6721 26.144C39.1441 26.6 39.3801 27.256 39.3801 28.112V30.44C39.3801 30.608 39.4081 30.724 39.4641 30.788C39.5281 30.852 39.6201 30.884 39.7401 30.884H39.9441V32C39.8961 32.016 39.8161 32.028 39.7041 32.036C39.6001 32.044 39.4921 32.048 39.3801 32.048C39.1161 32.048 38.8801 32.008 38.6721 31.928C38.4641 31.84 38.3041 31.692 38.1921 31.484C38.0801 31.268 38.0241 30.976 38.0241 30.608L38.1561 30.704C38.0921 30.984 37.9521 31.236 37.7361 31.46C37.5281 31.676 37.2641 31.844 36.9441 31.964C36.6241 32.084 36.2641 32.144 35.8641 32.144ZM36.1761 31.028C36.5201 31.028 36.8161 30.96 37.0641 30.824C37.3121 30.688 37.5041 30.5 37.6401 30.26C37.7761 30.02 37.8441 29.736 37.8441 29.408V29.048L36.1881 29.384C35.8441 29.456 35.5961 29.564 35.4441 29.708C35.3001 29.844 35.2281 30.024 35.2281 30.248C35.2281 30.496 35.3081 30.688 35.4681 30.824C35.6361 30.96 35.8721 31.028 36.1761 31.028ZM40.9416 32V25.592H42.3336L42.3816 27.164L42.2376 27.092C42.3096 26.748 42.4336 26.456 42.6096 26.216C42.7936 25.968 43.0136 25.78 43.2696 25.652C43.5336 25.516 43.8216 25.448 44.1336 25.448C44.6776 25.448 45.1176 25.604 45.4536 25.916C45.7896 26.22 46.0016 26.64 46.0896 27.176H45.8856C45.9576 26.8 46.0816 26.488 46.2576 26.24C46.4336 25.984 46.6536 25.788 46.9176 25.652C47.1896 25.516 47.4936 25.448 47.8296 25.448C48.2696 25.448 48.6496 25.544 48.9696 25.736C49.2896 25.92 49.5336 26.192 49.7016 26.552C49.8776 26.912 49.9656 27.356 49.9656 27.884V32H48.4296V28.28C48.4296 27.752 48.3376 27.356 48.1536 27.092C47.9776 26.828 47.7056 26.696 47.3376 26.696C47.0896 26.696 46.8776 26.76 46.7016 26.888C46.5256 27.016 46.3896 27.204 46.2936 27.452C46.2056 27.692 46.1616 27.984 46.1616 28.328V32H44.7336V28.328C44.7336 27.8 44.6536 27.396 44.4936 27.116C44.3336 26.836 44.0576 26.696 43.6656 26.696C43.4176 26.696 43.2056 26.76 43.0296 26.888C42.8616 27.016 42.7256 27.204 42.6216 27.452C42.5256 27.692 42.4776 27.984 42.4776 28.328V32H40.9416ZM54.9793 32.144C54.5313 32.144 54.1393 32.048 53.8033 31.856C53.4753 31.664 53.2193 31.396 53.0353 31.052L52.9993 32H51.5353V23.48H53.0713V26.504C53.2473 26.208 53.4993 25.96 53.8273 25.76C54.1553 25.552 54.5393 25.448 54.9793 25.448C55.5313 25.448 56.0073 25.588 56.4073 25.868C56.8153 26.14 57.1273 26.528 57.3433 27.032C57.5673 27.528 57.6793 28.116 57.6793 28.796C57.6793 29.476 57.5673 30.068 57.3433 30.572C57.1273 31.068 56.8153 31.456 56.4073 31.736C56.0073 32.008 55.5313 32.144 54.9793 32.144ZM54.6313 30.896C55.0713 30.896 55.4233 30.712 55.6873 30.344C55.9513 29.968 56.0833 29.452 56.0833 28.796C56.0833 28.132 55.9513 27.616 55.6873 27.248C55.4313 26.88 55.0833 26.696 54.6433 26.696C54.3153 26.696 54.0313 26.78 53.7913 26.948C53.5593 27.108 53.3793 27.344 53.2513 27.656C53.1313 27.968 53.0713 28.348 53.0713 28.796C53.0713 29.228 53.1313 29.604 53.2513 29.924C53.3793 30.236 53.5593 30.476 53.7913 30.644C54.0233 30.812 54.3033 30.896 54.6313 30.896ZM60.825 32.144C60.153 32.144 59.613 31.992 59.205 31.688C58.797 31.376 58.593 30.944 58.593 30.392C58.593 29.84 58.765 29.408 59.109 29.096C59.453 28.784 59.977 28.56 60.681 28.424L62.805 28.004C62.805 27.548 62.701 27.208 62.493 26.984C62.285 26.752 61.977 26.636 61.569 26.636C61.201 26.636 60.909 26.724 60.693 26.9C60.485 27.068 60.341 27.312 60.261 27.632L58.701 27.56C58.829 26.88 59.141 26.36 59.637 26C60.133 25.632 60.777 25.448 61.569 25.448C62.481 25.448 63.169 25.68 63.633 26.144C64.105 26.6 64.341 27.256 64.341 28.112V30.44C64.341 30.608 64.369 30.724 64.425 30.788C64.489 30.852 64.581 30.884 64.701 30.884H64.905V32C64.857 32.016 64.777 32.028 64.665 32.036C64.561 32.044 64.453 32.048 64.341 32.048C64.077 32.048 63.841 32.008 63.633 31.928C63.425 31.84 63.265 31.692 63.153 31.484C63.041 31.268 62.985 30.976 62.985 30.608L63.117 30.704C63.053 30.984 62.913 31.236 62.697 31.46C62.489 31.676 62.225 31.844 61.905 31.964C61.585 32.084 61.225 32.144 60.825 32.144ZM61.137 31.028C61.481 31.028 61.777 30.96 62.025 30.824C62.273 30.688 62.465 30.5 62.601 30.26C62.737 30.02 62.805 29.736 62.805 29.408V29.048L61.149 29.384C60.805 29.456 60.557 29.564 60.405 29.708C60.261 29.844 60.189 30.024 60.189 30.248C60.189 30.496 60.269 30.688 60.429 30.824C60.597 30.96 60.833 31.028 61.137 31.028ZM65.8322 32V23.48H67.3682V27.056H67.1762C67.2402 26.688 67.3682 26.388 67.5602 26.156C67.7522 25.916 67.9882 25.74 68.2682 25.628C68.5482 25.508 68.8562 25.448 69.1922 25.448C69.6642 25.448 70.0602 25.552 70.3802 25.76C70.7082 25.96 70.9522 26.244 71.1122 26.612C71.2802 26.98 71.3642 27.404 71.3642 27.884V32H69.8282V28.256C69.8282 27.736 69.7402 27.348 69.5642 27.092C69.3882 26.828 69.1122 26.696 68.7362 26.696C68.3202 26.696 67.9882 26.832 67.7402 27.104C67.4922 27.376 67.3682 27.772 67.3682 28.292V32H65.8322ZM72.9338 32V23.48H74.4698V28.484L77.0978 25.592H78.9938L76.4858 28.256L79.0778 32H77.3498L75.4778 29.168L74.4698 30.236V32H72.9338ZM81.7078 32.144C81.0358 32.144 80.4958 31.992 80.0878 31.688C79.6798 31.376 79.4758 30.944 79.4758 30.392C79.4758 29.84 79.6478 29.408 79.9918 29.096C80.3358 28.784 80.8598 28.56 81.5638 28.424L83.6878 28.004C83.6878 27.548 83.5838 27.208 83.3758 26.984C83.1678 26.752 82.8598 26.636 82.4518 26.636C82.0838 26.636 81.7918 26.724 81.5758 26.9C81.3678 27.068 81.2238 27.312 81.1438 27.632L79.5838 27.56C79.7118 26.88 80.0238 26.36 80.5198 26C81.0158 25.632 81.6598 25.448 82.4518 25.448C83.3638 25.448 84.0518 25.68 84.5158 26.144C84.9878 26.6 85.2238 27.256 85.2238 28.112V30.44C85.2238 30.608 85.2518 30.724 85.3078 30.788C85.3718 30.852 85.4638 30.884 85.5838 30.884H85.7878V32C85.7398 32.016 85.6598 32.028 85.5478 32.036C85.4438 32.044 85.3358 32.048 85.2238 32.048C84.9598 32.048 84.7238 32.008 84.5158 31.928C84.3078 31.84 84.1478 31.692 84.0358 31.484C83.9238 31.268 83.8678 30.976 83.8678 30.608L83.9998 30.704C83.9358 30.984 83.7958 31.236 83.5798 31.46C83.3718 31.676 83.1078 31.844 82.7878 31.964C82.4678 32.084 82.1078 32.144 81.7078 32.144ZM82.0198 31.028C82.3638 31.028 82.6598 30.96 82.9078 30.824C83.1558 30.688 83.3478 30.5 83.4838 30.26C83.6198 30.02 83.6878 29.736 83.6878 29.408V29.048L82.0318 29.384C81.6878 29.456 81.4398 29.564 81.2878 29.708C81.1438 29.844 81.0718 30.024 81.0718 30.248C81.0718 30.496 81.1518 30.688 81.3118 30.824C81.4798 30.96 81.7158 31.028 82.0198 31.028ZM86.7853 32V25.592H88.1773L88.2373 27.392L88.0573 27.32C88.1213 26.872 88.2533 26.512 88.4533 26.24C88.6533 25.968 88.8973 25.768 89.1853 25.64C89.4733 25.512 89.7893 25.448 90.1333 25.448C90.6053 25.448 91.0013 25.552 91.3213 25.76C91.6493 25.968 91.8973 26.256 92.0653 26.624C92.2333 26.984 92.3173 27.404 92.3173 27.884V32H90.7813V28.376C90.7813 28.016 90.7453 27.712 90.6733 27.464C90.6013 27.216 90.4813 27.028 90.3133 26.9C90.1533 26.764 89.9373 26.696 89.6653 26.696C89.2573 26.696 88.9293 26.84 88.6813 27.128C88.4413 27.416 88.3213 27.832 88.3213 28.376V32H86.7853ZM99.1083 32.144C98.5643 32.144 98.0923 32.008 97.6923 31.736C97.3003 31.464 96.9963 31.076 96.7803 30.572C96.5643 30.068 96.4563 29.476 96.4563 28.796C96.4563 28.116 96.5643 27.524 96.7803 27.02C96.9963 26.516 97.3043 26.128 97.7043 25.856C98.1043 25.584 98.5723 25.448 99.1083 25.448C99.5563 25.448 99.9483 25.54 100.284 25.724C100.628 25.908 100.888 26.168 101.064 26.504V23.48H102.6V32H101.136L101.1 31.052C100.924 31.396 100.66 31.664 100.308 31.856C99.9563 32.048 99.5563 32.144 99.1083 32.144ZM99.5763 30.896C99.8963 30.896 100.164 30.816 100.38 30.656C100.604 30.496 100.772 30.26 100.884 29.948C101.004 29.628 101.064 29.244 101.064 28.796C101.064 28.34 101.004 27.956 100.884 27.644C100.772 27.332 100.604 27.096 100.38 26.936C100.164 26.776 99.8963 26.696 99.5763 26.696C99.1123 26.696 98.7403 26.884 98.4603 27.26C98.1883 27.628 98.0523 28.14 98.0523 28.796C98.0523 29.436 98.1883 29.948 98.4603 30.332C98.7403 30.708 99.1123 30.896 99.5763 30.896ZM106.948 32.144C106.316 32.144 105.76 32.008 105.28 31.736C104.808 31.456 104.44 31.064 104.176 30.56C103.92 30.056 103.792 29.468 103.792 28.796C103.792 28.116 103.92 27.528 104.176 27.032C104.44 26.528 104.808 26.14 105.28 25.868C105.76 25.588 106.316 25.448 106.948 25.448C107.58 25.448 108.132 25.588 108.604 25.868C109.076 26.14 109.44 26.528 109.696 27.032C109.96 27.528 110.092 28.116 110.092 28.796C110.092 29.468 109.96 30.056 109.696 30.56C109.44 31.064 109.076 31.456 108.604 31.736C108.132 32.008 107.58 32.144 106.948 32.144ZM106.948 30.896C107.444 30.896 107.824 30.712 108.088 30.344C108.36 29.976 108.496 29.46 108.496 28.796C108.496 28.14 108.36 27.628 108.088 27.26C107.824 26.884 107.444 26.696 106.948 26.696C106.452 26.696 106.068 26.884 105.796 27.26C105.524 27.628 105.388 28.14 105.388 28.796C105.388 29.46 105.524 29.976 105.796 30.344C106.068 30.712 106.452 30.896 106.948 30.896ZM111.278 32V23.48H112.814V28.484L115.442 25.592H117.338L114.83 28.256L117.422 32H115.694L113.822 29.168L112.814 30.236V32H111.278ZM120.69 32.144C120.042 32.144 119.526 31.932 119.142 31.508C118.766 31.076 118.578 30.48 118.578 29.72V25.592H120.114V29.336C120.114 29.872 120.202 30.268 120.378 30.524C120.562 30.772 120.838 30.896 121.206 30.896C121.622 30.896 121.942 30.76 122.166 30.488C122.398 30.208 122.514 29.804 122.514 29.276V25.592H124.05V32H122.646L122.61 30.236L122.802 30.296C122.706 30.904 122.478 31.364 122.118 31.676C121.758 31.988 121.282 32.144 120.69 32.144ZM125.738 32V25.592H127.13L127.178 27.164L127.034 27.092C127.106 26.748 127.23 26.456 127.406 26.216C127.59 25.968 127.81 25.78 128.066 25.652C128.33 25.516 128.618 25.448 128.93 25.448C129.474 25.448 129.914 25.604 130.25 25.916C130.586 26.22 130.798 26.64 130.886 27.176H130.682C130.754 26.8 130.878 26.488 131.054 26.24C131.23 25.984 131.45 25.788 131.714 25.652C131.986 25.516 132.29 25.448 132.626 25.448C133.066 25.448 133.446 25.544 133.766 25.736C134.086 25.92 134.33 26.192 134.498 26.552C134.674 26.912 134.762 27.356 134.762 27.884V32H133.226V28.28C133.226 27.752 133.134 27.356 132.95 27.092C132.774 26.828 132.502 26.696 132.134 26.696C131.886 26.696 131.674 26.76 131.498 26.888C131.322 27.016 131.186 27.204 131.09 27.452C131.002 27.692 130.958 27.984 130.958 28.328V32H129.53V28.328C129.53 27.8 129.45 27.396 129.29 27.116C129.13 26.836 128.854 26.696 128.462 26.696C128.214 26.696 128.002 26.76 127.826 26.888C127.658 27.016 127.522 27.204 127.418 27.452C127.322 27.692 127.274 27.984 127.274 28.328V32H125.738ZM139.057 32.144C138.417 32.144 137.861 32.008 137.389 31.736C136.917 31.456 136.553 31.064 136.297 30.56C136.041 30.056 135.913 29.468 135.913 28.796C135.913 28.124 136.041 27.54 136.297 27.044C136.553 26.54 136.913 26.148 137.377 25.868C137.849 25.588 138.397 25.448 139.021 25.448C139.629 25.448 140.161 25.584 140.617 25.856C141.081 26.128 141.437 26.52 141.685 27.032C141.933 27.544 142.057 28.16 142.057 28.88V29.228H137.509C137.541 29.788 137.693 30.212 137.965 30.5C138.245 30.78 138.613 30.92 139.069 30.92C139.413 30.92 139.697 30.844 139.921 30.692C140.153 30.532 140.313 30.312 140.401 30.032L141.973 30.128C141.797 30.752 141.449 31.244 140.929 31.604C140.417 31.964 139.793 32.144 139.057 32.144ZM137.509 28.196H140.473C140.441 27.676 140.293 27.292 140.029 27.044C139.765 26.788 139.429 26.66 139.021 26.66C138.613 26.66 138.273 26.792 138.001 27.056C137.737 27.32 137.573 27.7 137.509 28.196ZM143.258 32V25.592H144.65L144.71 27.392L144.53 27.32C144.594 26.872 144.726 26.512 144.926 26.24C145.126 25.968 145.37 25.768 145.658 25.64C145.946 25.512 146.262 25.448 146.606 25.448C147.078 25.448 147.474 25.552 147.794 25.76C148.122 25.968 148.37 26.256 148.538 26.624C148.706 26.984 148.79 27.404 148.79 27.884V32H147.254V28.376C147.254 28.016 147.218 27.712 147.146 27.464C147.074 27.216 146.954 27.028 146.786 26.9C146.626 26.764 146.41 26.696 146.138 26.696C145.73 26.696 145.402 26.84 145.154 27.128C144.914 27.416 144.794 27.832 144.794 28.376V32H143.258Z" fill="#FEFFFF"/>
</g>
<defs>
<filter id="filter0_d_8085_433" x="0" y="0" width="177" height="64" filterUnits="userSpaceOnUse" color-interpolation-filters="sRGB">
<feFlood flood-opacity="0" result="BackgroundImageFix"/>
<feColorMatrix in="SourceAlpha" type="matrix" values="0 0 0 0 0 0 0 0 0 0 0 0 0 0 0 0 0 0 127 0" result="hardAlpha"/>
<feOffset dy="4"/>
<feGaussianBlur stdDeviation="7.5"/>
<feColorMatrix type="matrix" values="0 0 0 0 0.0627451 0 0 0 0 0.0941176 0 0 0 0 0.156863 0 0 0 0.12 0"/>
<feBlend mode="normal" in2="BackgroundImageFix" result="effect1_dropShadow_8085_433"/>
<feBlend mode="normal" in="SourceGraphic" in2="effect1_dropShadow_8085_433" result="shape"/>
</filter>
</defs>
</svg>
