<svg width="20" height="20" viewBox="0 0 20 20" fill="none" xmlns="http://www.w3.org/2000/svg">
<g clip-path="url(#clip0_8362_2652)">
<circle cx="10.0003" cy="10.0003" r="8.33333" stroke="#1F1F1F" stroke-width="1.5"/>
<path d="M12.0792 7.91634C12.0792 9.06693 11.1452 9.99967 9.99294 9.99967C8.84071 9.99967 7.90664 9.06693 7.90664 7.91634C7.90664 6.76575 8.84071 5.83301 9.99294 5.83301C11.1452 5.83301 12.0792 6.76575 12.0792 7.91634Z" fill="#1F1F1F"/>
<path d="M6.25 14.1663C8.19308 12.1312 11.786 12.0354 13.75 14.1663M12.0792 7.91634C12.0792 9.06693 11.1452 9.99967 9.99294 9.99967C8.84071 9.99967 7.90664 9.06693 7.90664 7.91634C7.90664 6.76575 8.84071 5.83301 9.99294 5.83301C11.1452 5.83301 12.0792 6.76575 12.0792 7.91634Z" stroke="#1F1F1F" stroke-width="1.5" stroke-linecap="round"/>
</g>
<defs>
<clipPath id="clip0_8362_2652">
<rect width="20" height="20" fill="white"/>
</clipPath>
</defs>
</svg>
