<svg width="32" height="32" viewBox="0 0 32 32" fill="none" xmlns="http://www.w3.org/2000/svg">
<path d="M22.667 6C22.667 7.10457 21.7716 8 20.667 8C19.5624 8 18.667 7.10457 18.667 6C18.667 4.89543 19.5624 4 20.667 4C21.7716 4 22.667 4.89543 22.667 6Z" stroke="#FEFFFF" stroke-width="1.5"/>
<path d="M20 28.0001L19.1145 24.5122C18.8215 23.3578 18.2153 22.3036 17.361 21.4622L15.3333 19.4655M8 14.8702C9.33333 12.2439 11.3836 10.7221 16 10.6675M16 10.6675C16.2915 10.6641 16.7258 10.663 17.1598 10.6631C17.8329 10.6632 18.1695 10.6633 18.4376 10.7885C18.7058 10.9138 18.9808 11.2424 19.5309 11.8997C19.6885 12.088 19.8503 12.2567 20 12.3689M16 10.6675L14.3079 13.2784C13.3775 14.7139 12.9124 15.4317 12.8943 16.1852C12.8862 16.5209 12.9416 16.8551 13.0575 17.1702C13.3178 17.8776 13.9896 18.4069 15.3333 19.4655M20 12.3689C21.5397 13.5235 23.9502 13.9885 26.6667 10.9312M20 12.3689L15.3333 19.4655" stroke="#FEFFFF" stroke-width="1.5" stroke-linecap="round" stroke-linejoin="round"/>
<path d="M5.33398 23.6405L6.23828 23.8556C8.54282 24.4039 10.9383 23.3554 12.0007 21.3335" stroke="#FEFFFF" stroke-width="1.5" stroke-linecap="round" stroke-linejoin="round"/>
</svg>
