<svg xmlns="http://www.w3.org/2000/svg" width="44" height="16" viewBox="0 0 44 16" fill="none">
  <path d="M2.97191 0.703125L6.86387 12.152H7.01722L10.9019 0.703125H13.8811L8.60905 15.2486H5.26474L0 0.703125H2.97191Z" fill="#111B29"/>
  <path d="M15.734 15.2486V4.33949H18.3773V15.2486H15.734ZM17.0629 2.79119C16.6443 2.79119 16.2841 2.65625 15.9822 2.38636C15.6804 2.11174 15.5295 1.78267 15.5295 1.39915C15.5295 1.01089 15.6804 0.681818 15.9822 0.411931C16.2841 0.13731 16.6443 0 17.0629 0C17.4865 0 17.8467 0.13731 18.1436 0.411931C18.4454 0.681818 18.5964 1.01089 18.5964 1.39915C18.5964 1.78267 18.4454 2.11174 18.1436 2.38636C17.8467 2.65625 17.4865 2.79119 17.0629 2.79119Z" fill="#111B29"/>
  <path d="M25.2576 15.4403C24.3765 15.4403 23.5879 15.2202 22.8918 14.7798C22.1956 14.3395 21.6455 13.7003 21.2415 12.8622C20.8375 12.0241 20.6354 11.0062 20.6354 9.80824C20.6354 8.59612 20.8399 7.57339 21.2488 6.74006C21.6626 5.90199 22.22 5.26989 22.921 4.84375C23.622 4.41288 24.4033 4.19744 25.2649 4.19744C25.9221 4.19744 26.4624 4.30635 26.8859 4.52415C27.3095 4.73722 27.6454 4.99527 27.8936 5.2983C28.1419 5.59659 28.3342 5.87831 28.4705 6.14347H28.58V0.703125H31.2306V15.2486H28.6311V13.5298H28.4705C28.3342 13.795 28.137 14.0767 27.879 14.375C27.621 14.6686 27.2803 14.9195 26.8567 15.1278C26.4332 15.3362 25.9002 15.4403 25.2576 15.4403ZM25.9951 13.331C26.5549 13.331 27.032 13.1842 27.4263 12.8906C27.8206 12.5923 28.12 12.178 28.3244 11.6477C28.5289 11.1174 28.6311 10.4995 28.6311 9.79403C28.6311 9.08854 28.5289 8.47538 28.3244 7.95455C28.1249 7.43371 27.8279 7.02888 27.4336 6.74006C27.0442 6.45123 26.5647 6.30682 25.9951 6.30682C25.4061 6.30682 24.9144 6.45597 24.5201 6.75426C24.1258 7.05256 23.8288 7.46449 23.6293 7.99006C23.4297 8.51562 23.3299 9.11695 23.3299 9.79403C23.3299 10.4759 23.4297 11.0843 23.6293 11.6193C23.8337 12.1496 24.1331 12.5687 24.5274 12.8764C24.9266 13.1795 25.4158 13.331 25.9951 13.331Z" fill="#111B29"/>
  <path d="M39.0127 15.4616C37.8882 15.4616 36.9171 15.2344 36.0992 14.7798C35.2863 14.3205 34.6607 13.6719 34.2226 12.8338C33.7845 11.991 33.5654 10.9991 33.5654 9.85795C33.5654 8.7358 33.7845 7.75095 34.2226 6.90341C34.6656 6.05114 35.2839 5.38826 36.0773 4.91477C36.8708 4.43655 37.803 4.19744 38.874 4.19744C39.5653 4.19744 40.2176 4.30635 40.8309 4.52415C41.4492 4.73722 41.9944 5.06866 42.4666 5.51847C42.9436 5.96828 43.3185 6.54119 43.5911 7.23722C43.8637 7.9285 44 8.75237 44 9.70881V10.4972H34.8068V8.7642H41.4662C41.4613 8.27178 41.3518 7.83381 41.1376 7.45028C40.9234 7.06203 40.624 6.75663 40.2395 6.53409C39.8598 6.31155 39.4168 6.20028 38.9105 6.20028C38.3702 6.20028 37.8955 6.32813 37.4866 6.58381C37.0777 6.83475 36.7589 7.16619 36.5301 7.57812C36.3061 7.98532 36.1917 8.43277 36.1869 8.92045V10.4332C36.1869 11.0677 36.3061 11.6122 36.5447 12.0668C36.7832 12.5166 37.1166 12.8622 37.545 13.1037C37.9734 13.3404 38.4748 13.4588 39.0492 13.4588C39.4338 13.4588 39.7819 13.4067 40.0934 13.3026C40.405 13.1937 40.6752 13.035 40.9039 12.8267C41.1327 12.6184 41.3056 12.3603 41.4224 12.0526L43.8905 12.3224C43.7347 12.9569 43.4377 13.5109 42.9996 13.9844C42.5664 14.4531 42.0114 14.8177 41.3348 15.0781C40.6581 15.3338 39.8841 15.4616 39.0127 15.4616Z" fill="#111B29"/>
</svg>
