<svg xmlns="http://www.w3.org/2000/svg" width="40" height="40" viewBox="0 0 40 40" fill="none">
  <path d="M2.73742 25.4645C1.75419 24.9363 1.75419 23.505 2.73742 22.9769L17.4122 15.0937C19.0313 14.2239 20.9687 14.2239 22.5878 15.0937L37.2626 22.9769C38.2458 23.505 38.2458 24.9363 37.2626 25.4645L22.5878 33.3477C20.9687 34.2174 19.0313 34.2174 17.4122 33.3477L2.73742 25.4645Z" fill="#111B29"/>
  <path d="M2.73742 17.0231C1.75419 16.495 1.75419 15.0637 2.73742 14.5355L17.4122 6.65231C19.0313 5.78256 20.9687 5.78256 22.5878 6.65231L37.2626 14.5355C38.2458 15.0637 38.2458 16.495 37.2626 17.0231L22.5878 24.9063C20.9687 25.7761 19.0313 25.7761 17.4122 24.9063L2.73742 17.0231Z" fill="#111B29"/>
  <path fill-rule="evenodd" clip-rule="evenodd" d="M31.7211 20.0003L22.5878 24.9063C20.9687 25.7761 19.0313 25.7761 17.4122 24.9063L8.27892 20.0003L17.4122 15.0937C19.0313 14.2239 20.9687 14.2239 22.5878 15.0937L31.7211 20.0003Z" fill="white"/>
</svg>
